<svg xmlns="http://www.w3.org/2000/svg" xmlns:xlink="http://www.w3.org/1999/xlink" width="500" zoomAndPan="magnify" viewBox="0 0 375 374.999991" height="500" preserveAspectRatio="xMidYMid meet" version="1.0"><defs><g/></defs><g fill="#ffffff" fill-opacity="1"><g transform="translate(83.321961, 177.028377)"><g/></g></g><g fill="#ffffff" fill-opacity="1"><g transform="translate(100.02036, 177.028377)"><g><path d="M 19.558594 -39.65625 L 3.339844 -39.65625 C 3.242188 -39.65625 3.144531 -39.558594 3.144531 -39.410156 C 3.144531 -39.261719 3.242188 -39.164062 3.339844 -39.164062 C 3.734375 -39.164062 4.078125 -38.871094 4.078125 -38.476562 L 4.078125 -0.933594 C 4.078125 -0.539062 3.734375 -0.195312 3.339844 -0.195312 C 3.242188 -0.195312 3.144531 -0.0976562 3.144531 0.0507812 C 3.144531 0.148438 3.242188 0.246094 3.339844 0.246094 L 6.339844 0.246094 C 6.488281 0.246094 6.585938 0.148438 6.585938 0.0507812 C 6.585938 -0.0976562 6.488281 -0.195312 6.339844 -0.195312 C 5.945312 -0.195312 5.652344 -0.539062 5.652344 -0.933594 L 5.652344 -19.460938 L 11.300781 -19.460938 C 11.449219 -19.460938 11.546875 -19.558594 11.546875 -19.707031 C 11.546875 -19.804688 11.449219 -19.949219 11.300781 -19.949219 L 5.652344 -19.949219 L 5.652344 -39.164062 C 17.886719 -39.164062 18.476562 -38.230469 19.3125 -36.855469 L 19.363281 -36.804688 C 19.363281 -36.757812 19.460938 -36.707031 19.558594 -36.707031 C 19.558594 -36.707031 19.605469 -36.707031 19.605469 -36.707031 C 19.707031 -36.757812 19.804688 -36.855469 19.804688 -36.953125 L 19.804688 -39.410156 C 19.804688 -39.558594 19.65625 -39.65625 19.558594 -39.65625 Z M 19.558594 -39.65625 "/></g></g></g><g fill="#ffffff" fill-opacity="1"><g transform="translate(120.11594, 177.028377)"><g><path d="M 6.339844 -39.164062 C 6.488281 -39.164062 6.585938 -39.261719 6.585938 -39.410156 C 6.585938 -39.558594 6.488281 -39.65625 6.339844 -39.65625 L 3.339844 -39.65625 C 3.242188 -39.65625 3.144531 -39.558594 3.144531 -39.410156 C 3.144531 -39.261719 3.242188 -39.164062 3.339844 -39.164062 C 3.734375 -39.164062 4.078125 -38.871094 4.078125 -38.476562 L 4.078125 -0.933594 C 4.078125 -0.539062 3.734375 -0.195312 3.339844 -0.195312 C 3.242188 -0.195312 3.144531 -0.0976562 3.144531 0.0507812 C 3.144531 0.148438 3.242188 0.246094 3.339844 0.246094 L 6.339844 0.246094 C 6.488281 0.246094 6.585938 0.148438 6.585938 0.0507812 C 6.585938 -0.0976562 6.488281 -0.195312 6.339844 -0.195312 C 5.945312 -0.195312 5.652344 -0.539062 5.652344 -0.933594 L 5.652344 -38.476562 C 5.652344 -38.871094 5.945312 -39.164062 6.339844 -39.164062 Z M 6.339844 -39.164062 "/></g></g></g><g fill="#ffffff" fill-opacity="1"><g transform="translate(129.893493, 177.028377)"><g><path d="M 20.785156 -39.65625 L 3.339844 -39.65625 C 3.242188 -39.65625 3.144531 -39.558594 3.144531 -39.410156 C 3.144531 -39.261719 3.242188 -39.164062 3.339844 -39.164062 C 3.734375 -39.164062 4.078125 -38.871094 4.078125 -38.476562 L 4.078125 -0.933594 C 4.078125 -0.539062 3.734375 -0.195312 3.339844 -0.195312 C 3.242188 -0.195312 3.144531 -0.0976562 3.144531 0.0507812 C 3.144531 0.148438 3.242188 0.246094 3.339844 0.246094 L 20.785156 0.246094 C 31.84375 0 40.542969 -8.796875 40.542969 -19.707031 C 40.542969 -30.613281 31.84375 -39.363281 20.785156 -39.65625 Z M 20.246094 -39.164062 L 20.785156 -39.164062 C 30.859375 -38.871094 38.773438 -30.320312 38.773438 -19.707031 C 38.773438 -9.042969 30.859375 -0.492188 20.785156 -0.246094 L 5.652344 -0.195312 L 5.652344 -39.164062 Z M 20.246094 -39.164062 "/></g></g></g><g fill="#ffffff" fill-opacity="1"><g transform="translate(172.492198, 177.028377)"><g><path d="M 19.558594 0.246094 C 19.65625 0.246094 19.804688 0.148438 19.804688 0 L 19.804688 -2.40625 C 19.804688 -2.554688 19.707031 -2.605469 19.605469 -2.652344 C 19.507812 -2.703125 19.410156 -2.652344 19.3125 -2.554688 C 18.476562 -1.128906 17.886719 -0.246094 5.652344 -0.195312 L 5.652344 -19.460938 L 11.300781 -19.460938 C 11.449219 -19.460938 11.546875 -19.558594 11.546875 -19.707031 C 11.546875 -19.804688 11.449219 -19.949219 11.300781 -19.949219 L 5.652344 -19.949219 L 5.652344 -39.164062 C 17.886719 -39.164062 18.476562 -38.230469 19.3125 -36.855469 L 19.363281 -36.804688 C 19.363281 -36.757812 19.460938 -36.707031 19.558594 -36.707031 C 19.558594 -36.707031 19.605469 -36.707031 19.605469 -36.707031 C 19.707031 -36.757812 19.804688 -36.855469 19.804688 -36.953125 L 19.804688 -39.410156 C 19.804688 -39.558594 19.65625 -39.65625 19.558594 -39.65625 L 3.339844 -39.65625 C 3.242188 -39.65625 3.144531 -39.558594 3.144531 -39.410156 C 3.144531 -39.261719 3.242188 -39.164062 3.339844 -39.164062 C 3.734375 -39.164062 4.078125 -38.871094 4.078125 -38.476562 L 4.078125 -0.933594 C 4.078125 -0.539062 3.734375 -0.195312 3.339844 -0.195312 C 3.242188 -0.195312 3.144531 -0.0976562 3.144531 0.0507812 C 3.144531 0.148438 3.242188 0.246094 3.339844 0.246094 Z M 19.558594 0.246094 "/></g></g></g><g fill="#ffffff" fill-opacity="1"><g transform="translate(193.269505, 177.028377)"><g/></g></g><g fill="#ffffff" fill-opacity="1"><g transform="translate(209.974874, 177.028377)"><g/></g></g><g fill="#ffffff" fill-opacity="1"><g transform="translate(226.677895, 177.028377)"><g><path d="M 19.558594 0.246094 C 19.65625 0.246094 19.804688 0.148438 19.804688 0 L 19.804688 -2.40625 C 19.804688 -2.554688 19.707031 -2.605469 19.605469 -2.652344 C 19.507812 -2.703125 19.410156 -2.652344 19.3125 -2.554688 C 18.476562 -1.128906 17.886719 -0.246094 5.652344 -0.195312 L 5.652344 -19.460938 L 11.300781 -19.460938 C 11.449219 -19.460938 11.546875 -19.558594 11.546875 -19.707031 C 11.546875 -19.804688 11.449219 -19.949219 11.300781 -19.949219 L 5.652344 -19.949219 L 5.652344 -39.164062 C 17.886719 -39.164062 18.476562 -38.230469 19.3125 -36.855469 L 19.363281 -36.804688 C 19.363281 -36.757812 19.460938 -36.707031 19.558594 -36.707031 C 19.558594 -36.707031 19.605469 -36.707031 19.605469 -36.707031 C 19.707031 -36.757812 19.804688 -36.855469 19.804688 -36.953125 L 19.804688 -39.410156 C 19.804688 -39.558594 19.65625 -39.65625 19.558594 -39.65625 L 3.339844 -39.65625 C 3.242188 -39.65625 3.144531 -39.558594 3.144531 -39.410156 C 3.144531 -39.261719 3.242188 -39.164062 3.339844 -39.164062 C 3.734375 -39.164062 4.078125 -38.871094 4.078125 -38.476562 L 4.078125 -0.933594 C 4.078125 -0.539062 3.734375 -0.195312 3.339844 -0.195312 C 3.242188 -0.195312 3.144531 -0.0976562 3.144531 0.0507812 C 3.144531 0.148438 3.242188 0.246094 3.339844 0.246094 Z M 19.558594 0.246094 "/></g></g></g><g fill="#ffffff" fill-opacity="1"><g transform="translate(247.461346, 177.028377)"><g><path d="M 3.980469 -9.042969 C 3.929688 -9.089844 3.882812 -9.089844 3.832031 -9.089844 L 2.457031 -9.089844 C 2.359375 -9.089844 2.261719 -8.992188 2.261719 -8.894531 C 2.261719 -5.011719 5.207031 -1.621094 9.777344 -0.148438 C 11.253906 0.34375 12.875 0.589844 14.496094 0.589844 C 14.644531 0.589844 14.839844 0.589844 15.085938 0.589844 C 15.28125 0.589844 15.429688 0.589844 15.625 0.539062 C 21.964844 0.0976562 26.734375 -3.929688 26.734375 -8.894531 C 26.734375 -11.84375 24.867188 -14.691406 21.769531 -16.460938 L 7.910156 -24.519531 C 5.160156 -26.09375 3.585938 -28.550781 3.585938 -31.15625 C 3.585938 -35.429688 7.8125 -39.019531 13.367188 -39.460938 C 13.515625 -39.460938 13.660156 -39.460938 13.808594 -39.460938 C 13.859375 -39.460938 13.859375 -39.460938 13.90625 -39.460938 C 14.101562 -39.460938 14.300781 -39.460938 14.496094 -39.460938 C 16.070312 -39.460938 17.59375 -39.261719 19.015625 -38.773438 C 24.667969 -36.855469 25.308594 -33.21875 24.914062 -30.515625 C 24.914062 -30.46875 24.914062 -30.367188 24.964844 -30.320312 C 25.011719 -30.269531 25.109375 -30.269531 25.160156 -30.269531 L 26.488281 -30.269531 C 26.632812 -30.269531 26.734375 -30.367188 26.734375 -30.515625 C 26.734375 -34.347656 23.785156 -37.789062 19.164062 -39.261719 C 17.691406 -39.707031 16.117188 -39.953125 14.496094 -39.953125 C 14.300781 -39.953125 14.101562 -39.953125 13.90625 -39.953125 C 13.90625 -39.953125 13.859375 -39.953125 13.859375 -39.953125 L 13.808594 -39.953125 C 13.660156 -39.953125 13.515625 -39.953125 13.316406 -39.902344 C 7.027344 -39.460938 2.261719 -35.429688 2.261719 -30.515625 C 2.261719 -27.46875 4.03125 -24.667969 7.175781 -22.898438 L 21.082031 -14.839844 C 23.785156 -13.269531 25.355469 -10.8125 25.355469 -8.207031 C 25.355469 -3.929688 21.179688 -0.34375 15.625 0.0976562 C 15.429688 0.0976562 15.234375 0.0976562 15.035156 0.0976562 C 14.839844 0.0976562 14.644531 0.0976562 14.496094 0.0976562 C 12.925781 0.0976562 11.351562 -0.0976562 9.925781 -0.589844 C 4.324219 -2.507812 3.636719 -6.144531 4.03125 -8.84375 C 4.078125 -8.894531 4.03125 -8.992188 3.980469 -9.042969 Z M 3.980469 -9.042969 "/></g></g></g><g fill="#ffffff" fill-opacity="1"><g transform="translate(193.548465, 191.861093)"><g><path d="M 7.433594 -67.246094 L 7.433594 0 L 8.746094 0 L 8.746094 -67.246094 Z M 7.433594 -67.246094 "/></g></g></g><g fill="#ffffff" fill-opacity="1"><g transform="translate(213.835684, 191.861093)"><g><path d="M 7.433594 -67.246094 L 7.433594 0 L 8.746094 0 L 8.746094 -67.246094 Z M 7.433594 -67.246094 "/></g></g></g></svg>