<svg xmlns="http://www.w3.org/2000/svg" xmlns:xlink="http://www.w3.org/1999/xlink" width="500" zoomAndPan="magnify" viewBox="0 0 375 374.999991" height="500" preserveAspectRatio="xMidYMid meet" version="1.0"><defs><g/></defs><g fill="#ffffff" fill-opacity="1"><g transform="translate(-1.96756, 248.051438)"><g><path d="M 41.265625 -83.675781 L 7.050781 -83.675781 C 6.84375 -83.675781 6.636719 -83.46875 6.636719 -83.15625 C 6.636719 -82.84375 6.84375 -82.636719 7.050781 -82.636719 C 7.878906 -82.636719 8.605469 -82.015625 8.605469 -81.1875 L 8.605469 -1.96875 C 8.605469 -1.140625 7.878906 -0.414062 7.050781 -0.414062 C 6.84375 -0.414062 6.636719 -0.207031 6.636719 0.105469 C 6.636719 0.3125 6.84375 0.519531 7.050781 0.519531 L 13.375 0.519531 C 13.6875 0.519531 13.894531 0.3125 13.894531 0.105469 C 13.894531 -0.207031 13.6875 -0.414062 13.375 -0.414062 C 12.546875 -0.414062 11.925781 -1.140625 11.925781 -1.96875 L 11.925781 -41.058594 L 23.847656 -41.058594 C 24.160156 -41.058594 24.367188 -41.265625 24.367188 -41.578125 C 24.367188 -41.785156 24.160156 -42.097656 23.847656 -42.097656 L 11.925781 -42.097656 L 11.925781 -82.636719 C 37.742188 -82.636719 38.984375 -80.667969 40.75 -77.765625 L 40.851562 -77.660156 C 40.851562 -77.558594 41.058594 -77.453125 41.265625 -77.453125 C 41.265625 -77.453125 41.371094 -77.453125 41.371094 -77.453125 C 41.578125 -77.558594 41.785156 -77.765625 41.785156 -77.972656 L 41.785156 -83.15625 C 41.785156 -83.46875 41.472656 -83.675781 41.265625 -83.675781 Z M 41.265625 -83.675781 "/></g></g></g><g fill="#ffffff" fill-opacity="1"><g transform="translate(40.433674, 248.051438)"><g><path d="M 13.375 -82.636719 C 13.6875 -82.636719 13.894531 -82.84375 13.894531 -83.15625 C 13.894531 -83.46875 13.6875 -83.675781 13.375 -83.675781 L 7.050781 -83.675781 C 6.84375 -83.675781 6.636719 -83.46875 6.636719 -83.15625 C 6.636719 -82.84375 6.84375 -82.636719 7.050781 -82.636719 C 7.878906 -82.636719 8.605469 -82.015625 8.605469 -81.1875 L 8.605469 -1.96875 C 8.605469 -1.140625 7.878906 -0.414062 7.050781 -0.414062 C 6.84375 -0.414062 6.636719 -0.207031 6.636719 0.105469 C 6.636719 0.3125 6.84375 0.519531 7.050781 0.519531 L 13.375 0.519531 C 13.6875 0.519531 13.894531 0.3125 13.894531 0.105469 C 13.894531 -0.207031 13.6875 -0.414062 13.375 -0.414062 C 12.546875 -0.414062 11.925781 -1.140625 11.925781 -1.96875 L 11.925781 -81.1875 C 11.925781 -82.015625 12.546875 -82.636719 13.375 -82.636719 Z M 13.375 -82.636719 "/></g></g></g><g fill="#ffffff" fill-opacity="1"><g transform="translate(61.064096, 248.051438)"><g><path d="M 43.859375 -83.675781 L 7.050781 -83.675781 C 6.84375 -83.675781 6.636719 -83.46875 6.636719 -83.15625 C 6.636719 -82.84375 6.84375 -82.636719 7.050781 -82.636719 C 7.878906 -82.636719 8.605469 -82.015625 8.605469 -81.1875 L 8.605469 -1.96875 C 8.605469 -1.140625 7.878906 -0.414062 7.050781 -0.414062 C 6.84375 -0.414062 6.636719 -0.207031 6.636719 0.105469 C 6.636719 0.3125 6.84375 0.519531 7.050781 0.519531 L 43.859375 0.519531 C 67.1875 0 85.539062 -18.558594 85.539062 -41.578125 C 85.539062 -64.597656 67.1875 -83.050781 43.859375 -83.675781 Z M 42.71875 -82.636719 L 43.859375 -82.636719 C 65.113281 -82.015625 81.808594 -63.972656 81.808594 -41.578125 C 81.808594 -19.078125 65.113281 -1.035156 43.859375 -0.519531 L 11.925781 -0.414062 L 11.925781 -82.636719 Z M 42.71875 -82.636719 "/></g></g></g><g fill="#ffffff" fill-opacity="1"><g transform="translate(150.946432, 248.051438)"><g><path d="M 41.265625 0.519531 C 41.472656 0.519531 41.785156 0.3125 41.785156 0 L 41.785156 -5.082031 C 41.785156 -5.390625 41.578125 -5.496094 41.371094 -5.597656 C 41.164062 -5.703125 40.957031 -5.597656 40.75 -5.390625 C 38.984375 -2.386719 37.742188 -0.519531 11.925781 -0.414062 L 11.925781 -41.058594 L 23.847656 -41.058594 C 24.160156 -41.058594 24.367188 -41.265625 24.367188 -41.578125 C 24.367188 -41.785156 24.160156 -42.097656 23.847656 -42.097656 L 11.925781 -42.097656 L 11.925781 -82.636719 C 37.742188 -82.636719 38.984375 -80.667969 40.75 -77.765625 L 40.851562 -77.660156 C 40.851562 -77.558594 41.058594 -77.453125 41.265625 -77.453125 C 41.265625 -77.453125 41.371094 -77.453125 41.371094 -77.453125 C 41.578125 -77.558594 41.785156 -77.765625 41.785156 -77.972656 L 41.785156 -83.15625 C 41.785156 -83.46875 41.472656 -83.675781 41.265625 -83.675781 L 7.050781 -83.675781 C 6.84375 -83.675781 6.636719 -83.46875 6.636719 -83.15625 C 6.636719 -82.84375 6.84375 -82.636719 7.050781 -82.636719 C 7.878906 -82.636719 8.605469 -82.015625 8.605469 -81.1875 L 8.605469 -1.96875 C 8.605469 -1.140625 7.878906 -0.414062 7.050781 -0.414062 C 6.84375 -0.414062 6.636719 -0.207031 6.636719 0.105469 C 6.636719 0.3125 6.84375 0.519531 7.050781 0.519531 Z M 41.265625 0.519531 "/></g></g></g><g fill="#ffffff" fill-opacity="1"><g transform="translate(194.786094, 248.051438)"><g/></g></g><g fill="#ffffff" fill-opacity="1"><g transform="translate(230.034059, 248.051438)"><g/></g></g><g fill="#ffffff" fill-opacity="1"><g transform="translate(265.277066, 248.051438)"><g><path d="M 41.265625 0.519531 C 41.472656 0.519531 41.785156 0.3125 41.785156 0 L 41.785156 -5.082031 C 41.785156 -5.390625 41.578125 -5.496094 41.371094 -5.597656 C 41.164062 -5.703125 40.957031 -5.597656 40.75 -5.390625 C 38.984375 -2.386719 37.742188 -0.519531 11.925781 -0.414062 L 11.925781 -41.058594 L 23.847656 -41.058594 C 24.160156 -41.058594 24.367188 -41.265625 24.367188 -41.578125 C 24.367188 -41.785156 24.160156 -42.097656 23.847656 -42.097656 L 11.925781 -42.097656 L 11.925781 -82.636719 C 37.742188 -82.636719 38.984375 -80.667969 40.75 -77.765625 L 40.851562 -77.660156 C 40.851562 -77.558594 41.058594 -77.453125 41.265625 -77.453125 C 41.265625 -77.453125 41.371094 -77.453125 41.371094 -77.453125 C 41.578125 -77.558594 41.785156 -77.765625 41.785156 -77.972656 L 41.785156 -83.15625 C 41.785156 -83.46875 41.472656 -83.675781 41.265625 -83.675781 L 7.050781 -83.675781 C 6.84375 -83.675781 6.636719 -83.46875 6.636719 -83.15625 C 6.636719 -82.84375 6.84375 -82.636719 7.050781 -82.636719 C 7.878906 -82.636719 8.605469 -82.015625 8.605469 -81.1875 L 8.605469 -1.96875 C 8.605469 -1.140625 7.878906 -0.414062 7.050781 -0.414062 C 6.84375 -0.414062 6.636719 -0.207031 6.636719 0.105469 C 6.636719 0.3125 6.84375 0.519531 7.050781 0.519531 Z M 41.265625 0.519531 "/></g></g></g><g fill="#ffffff" fill-opacity="1"><g transform="translate(309.129693, 248.051438)"><g><path d="M 8.398438 -19.078125 C 8.292969 -19.183594 8.191406 -19.183594 8.085938 -19.183594 L 5.183594 -19.183594 C 4.976562 -19.183594 4.769531 -18.972656 4.769531 -18.765625 C 4.769531 -10.574219 10.992188 -3.421875 20.632812 -0.3125 C 23.742188 0.726562 27.164062 1.246094 30.585938 1.246094 C 30.898438 1.246094 31.3125 1.246094 31.832031 1.246094 C 32.246094 1.246094 32.558594 1.246094 32.972656 1.140625 C 46.347656 0.207031 56.40625 -8.292969 56.40625 -18.765625 C 56.40625 -24.988281 52.464844 -31.003906 45.933594 -34.734375 L 16.695312 -51.738281 C 10.886719 -55.058594 7.570312 -60.242188 7.570312 -65.738281 C 7.570312 -74.757812 16.484375 -82.328125 28.203125 -83.261719 C 28.511719 -83.261719 28.824219 -83.261719 29.136719 -83.261719 C 29.238281 -83.261719 29.238281 -83.261719 29.34375 -83.261719 C 29.757812 -83.261719 30.171875 -83.261719 30.585938 -83.261719 C 33.90625 -83.261719 37.121094 -82.84375 40.125 -81.808594 C 52.050781 -77.765625 53.398438 -70.089844 52.570312 -64.390625 C 52.570312 -64.285156 52.570312 -64.078125 52.671875 -63.972656 C 52.777344 -63.871094 52.984375 -63.871094 53.085938 -63.871094 L 55.886719 -63.871094 C 56.199219 -63.871094 56.40625 -64.078125 56.40625 -64.390625 C 56.40625 -72.476562 50.183594 -79.734375 40.4375 -82.84375 C 37.328125 -83.777344 34.007812 -84.296875 30.585938 -84.296875 C 30.171875 -84.296875 29.757812 -84.296875 29.34375 -84.296875 C 29.34375 -84.296875 29.238281 -84.296875 29.238281 -84.296875 L 29.136719 -84.296875 C 28.824219 -84.296875 28.511719 -84.296875 28.097656 -84.191406 C 14.828125 -83.261719 4.769531 -74.757812 4.769531 -64.390625 C 4.769531 -57.960938 8.503906 -52.050781 15.136719 -48.316406 L 44.480469 -31.3125 C 50.183594 -27.996094 53.503906 -22.8125 53.503906 -17.316406 C 53.503906 -8.292969 44.6875 -0.726562 32.972656 0.207031 C 32.558594 0.207031 32.144531 0.207031 31.726562 0.207031 C 31.3125 0.207031 30.898438 0.207031 30.585938 0.207031 C 27.269531 0.207031 23.953125 -0.207031 20.945312 -1.246094 C 9.125 -5.289062 7.671875 -12.960938 8.503906 -18.664062 C 8.605469 -18.765625 8.503906 -18.972656 8.398438 -19.078125 Z M 8.398438 -19.078125 "/></g></g></g><g fill="#ffffff" fill-opacity="1"><g transform="translate(195.374713, 279.34817)"><g><path d="M 15.683594 -141.886719 L 15.683594 0 L 18.449219 0 L 18.449219 -141.886719 Z M 15.683594 -141.886719 "/></g></g></g><g fill="#ffffff" fill-opacity="1"><g transform="translate(238.180301, 279.34817)"><g><path d="M 15.683594 -141.886719 L 15.683594 0 L 18.449219 0 L 18.449219 -141.886719 Z M 15.683594 -141.886719 "/></g></g></g><g fill="#ffffff" fill-opacity="1"><g transform="translate(81.787696, 323.907226)"><g><path d="M 1.679688 -0.0976562 C 1.628906 -0.0976562 1.582031 -0.0507812 1.582031 0.0234375 C 1.582031 0.0742188 1.628906 0.125 1.679688 0.125 L 3.1875 0.125 C 3.261719 0.125 3.308594 0.0742188 3.308594 0.0234375 C 3.308594 -0.0507812 3.261719 -0.0976562 3.1875 -0.0976562 C 2.988281 -0.0976562 2.839844 -0.273438 2.839844 -0.46875 L 2.839844 -7.707031 C 2.839844 -8.839844 3.777344 -9.78125 4.914062 -9.78125 L 9.878906 -9.78125 C 12.667969 -9.78125 14.941406 -12.050781 14.941406 -14.84375 C 14.941406 -17.660156 12.667969 -19.929688 9.878906 -19.929688 L 1.679688 -19.929688 C 1.628906 -19.929688 1.582031 -19.882812 1.582031 -19.808594 C 1.582031 -19.734375 1.628906 -19.683594 1.679688 -19.683594 C 1.878906 -19.683594 2.050781 -19.535156 2.050781 -19.339844 L 2.050781 -0.46875 C 2.050781 -0.273438 1.878906 -0.0976562 1.679688 -0.0976562 Z M 2.839844 -8.71875 L 2.839844 -19.683594 L 9.558594 -19.683594 C 12.050781 -19.683594 14.078125 -17.511719 14.078125 -14.84375 C 14.078125 -12.175781 12.050781 -10.027344 9.558594 -10.027344 L 4.914062 -10.027344 C 4 -10.003906 3.210938 -9.484375 2.839844 -8.71875 Z M 2.839844 -8.71875 "/></g></g></g><g fill="#ffffff" fill-opacity="1"><g transform="translate(97.417315, 323.907226)"><g><path d="M 1.679688 -0.0976562 C 1.628906 -0.0976562 1.582031 -0.0507812 1.582031 0.0234375 C 1.582031 0.0742188 1.628906 0.125 1.679688 0.125 L 3.1875 0.125 C 3.261719 0.125 3.308594 0.0742188 3.308594 0.0234375 C 3.308594 -0.0507812 3.261719 -0.0976562 3.1875 -0.0976562 C 2.988281 -0.0976562 2.839844 -0.273438 2.839844 -0.46875 L 2.839844 -9.78125 L 9.707031 -9.78125 L 9.707031 -0.46875 C 9.707031 -0.273438 9.558594 -0.0976562 9.359375 -0.0976562 C 9.285156 -0.0976562 9.238281 -0.0507812 9.238281 0.0234375 C 9.238281 0.0742188 9.285156 0.125 9.359375 0.125 L 10.867188 0.125 C 10.917969 0.125 10.992188 0.0742188 10.992188 0.0234375 C 10.992188 -0.0507812 10.917969 -0.0976562 10.867188 -0.0976562 C 10.667969 -0.0976562 10.519531 -0.273438 10.519531 -0.46875 L 10.519531 -19.339844 C 10.519531 -19.535156 10.667969 -19.683594 10.867188 -19.683594 C 10.917969 -19.683594 10.992188 -19.734375 10.992188 -19.808594 C 10.992188 -19.882812 10.917969 -19.929688 10.867188 -19.929688 L 9.359375 -19.929688 C 9.285156 -19.929688 9.238281 -19.882812 9.238281 -19.808594 C 9.238281 -19.734375 9.285156 -19.683594 9.359375 -19.683594 C 9.558594 -19.683594 9.707031 -19.535156 9.707031 -19.339844 L 9.707031 -10.027344 L 2.839844 -10.027344 L 2.839844 -19.339844 C 2.839844 -19.535156 2.988281 -19.683594 3.1875 -19.683594 C 3.261719 -19.683594 3.308594 -19.734375 3.308594 -19.808594 C 3.308594 -19.882812 3.261719 -19.929688 3.1875 -19.929688 L 1.679688 -19.929688 C 1.628906 -19.929688 1.582031 -19.882812 1.582031 -19.808594 C 1.582031 -19.734375 1.628906 -19.683594 1.679688 -19.683594 C 1.878906 -19.683594 2.050781 -19.535156 2.050781 -19.339844 L 2.050781 -0.46875 C 2.050781 -0.273438 1.878906 -0.0976562 1.679688 -0.0976562 Z M 1.679688 -0.0976562 "/></g></g></g><g fill="#ffffff" fill-opacity="1"><g transform="translate(110.0099, 323.907226)"><g><path d="M 18.769531 -16.71875 L 18.25 -17.238281 C 18.25 -17.261719 18.25 -17.261719 18.226562 -17.289062 C 18.175781 -17.335938 18.128906 -17.386719 18.078125 -17.410156 L 18.054688 -17.460938 C 18.027344 -17.484375 18.003906 -17.511719 17.980469 -17.511719 C 13.929688 -21.117188 7.855469 -20.96875 4 -17.089844 C 0.148438 -13.238281 0 -7.164062 3.605469 -3.136719 C 3.605469 -3.113281 3.628906 -3.085938 3.65625 -3.0625 L 3.679688 -3.011719 C 3.730469 -2.964844 3.777344 -2.914062 3.828125 -2.863281 C 3.828125 -2.863281 3.851562 -2.863281 3.878906 -2.839844 L 4.394531 -2.320312 C 6.324219 -0.566406 8.769531 0.296875 11.210938 0.296875 C 13.832031 0.296875 16.425781 -0.691406 18.425781 -2.691406 C 22.253906 -6.519531 22.425781 -12.695312 18.769531 -16.71875 Z M 3.878906 -3.160156 C 3.828125 -3.234375 3.777344 -3.285156 3.730469 -3.335938 C 3.703125 -3.382812 3.65625 -3.433594 3.628906 -3.457031 C 3.582031 -3.53125 3.507812 -3.605469 3.457031 -3.679688 C 3.410156 -3.730469 3.359375 -3.804688 3.308594 -3.851562 C 3.285156 -3.902344 3.234375 -3.976562 3.210938 -4.027344 C 3.136719 -4.101562 3.085938 -4.199219 3.011719 -4.296875 C 3.011719 -4.296875 2.988281 -4.320312 2.988281 -4.347656 C 0.714844 -7.902344 1.210938 -12.742188 4.296875 -16.128906 C 4.394531 -16.25 4.519531 -16.375 4.617188 -16.472656 C 4.765625 -16.597656 4.890625 -16.71875 5.011719 -16.84375 C 5.011719 -16.84375 5.039062 -16.867188 5.0625 -16.867188 C 7.015625 -18.648438 9.460938 -19.535156 11.855469 -19.535156 C 13.609375 -19.535156 15.335938 -19.042969 16.84375 -18.078125 C 16.867188 -18.054688 16.867188 -18.054688 16.894531 -18.027344 C 16.96875 -18.003906 17.042969 -17.929688 17.117188 -17.882812 C 17.164062 -17.855469 17.238281 -17.808594 17.289062 -17.757812 C 17.335938 -17.734375 17.386719 -17.683594 17.4375 -17.660156 C 17.511719 -17.585938 17.585938 -17.535156 17.660156 -17.460938 C 17.707031 -17.4375 17.734375 -17.410156 17.757812 -17.386719 C 17.808594 -17.335938 17.882812 -17.289062 17.929688 -17.238281 L 18.597656 -16.570312 C 21.882812 -12.867188 21.535156 -7.039062 17.808594 -3.308594 C 14.175781 0.296875 8.59375 0.742188 4.890625 -2.222656 C 4.816406 -2.273438 4.742188 -2.347656 4.644531 -2.421875 C 4.617188 -2.445312 4.570312 -2.46875 4.542969 -2.519531 Z M 3.878906 -3.160156 "/></g></g></g><g fill="#ffffff" fill-opacity="1"><g transform="translate(132.454326, 323.907226)"><g><path d="M 0.171875 -18.472656 C 0.199219 -18.449219 0.222656 -18.449219 0.222656 -18.449219 C 0.246094 -18.449219 0.273438 -18.449219 0.296875 -18.472656 C 1.777344 -19.558594 3.507812 -19.683594 7.65625 -19.683594 L 7.65625 -0.46875 C 7.65625 -0.273438 7.507812 -0.0976562 7.308594 -0.0976562 C 7.238281 -0.0976562 7.1875 -0.0507812 7.1875 0.0234375 C 7.1875 0.0742188 7.238281 0.125 7.308594 0.125 L 8.816406 0.125 C 8.867188 0.125 8.914062 0.0742188 8.914062 0.0234375 C 8.914062 -0.0507812 8.867188 -0.0976562 8.816406 -0.0976562 C 8.621094 -0.0976562 8.445312 -0.273438 8.445312 -0.46875 L 8.445312 -19.683594 C 12.597656 -19.683594 14.324219 -19.558594 15.804688 -18.472656 C 15.832031 -18.449219 15.855469 -18.449219 15.878906 -18.449219 C 15.90625 -18.449219 15.929688 -18.449219 15.929688 -18.472656 C 15.980469 -18.472656 16.003906 -18.523438 16.003906 -18.574219 L 16.003906 -19.808594 C 16.003906 -19.882812 15.953125 -19.929688 15.878906 -19.929688 L 0.222656 -19.929688 C 0.171875 -19.929688 0.125 -19.882812 0.125 -19.808594 L 0.125 -18.574219 C 0.125 -18.523438 0.148438 -18.472656 0.171875 -18.472656 Z M 0.171875 -18.472656 "/></g></g></g><g fill="#ffffff" fill-opacity="1"><g transform="translate(148.602465, 323.907226)"><g><path d="M 18.769531 -16.71875 L 18.25 -17.238281 C 18.25 -17.261719 18.25 -17.261719 18.226562 -17.289062 C 18.175781 -17.335938 18.128906 -17.386719 18.078125 -17.410156 L 18.054688 -17.460938 C 18.027344 -17.484375 18.003906 -17.511719 17.980469 -17.511719 C 13.929688 -21.117188 7.855469 -20.96875 4 -17.089844 C 0.148438 -13.238281 0 -7.164062 3.605469 -3.136719 C 3.605469 -3.113281 3.628906 -3.085938 3.65625 -3.0625 L 3.679688 -3.011719 C 3.730469 -2.964844 3.777344 -2.914062 3.828125 -2.863281 C 3.828125 -2.863281 3.851562 -2.863281 3.878906 -2.839844 L 4.394531 -2.320312 C 6.324219 -0.566406 8.769531 0.296875 11.210938 0.296875 C 13.832031 0.296875 16.425781 -0.691406 18.425781 -2.691406 C 22.253906 -6.519531 22.425781 -12.695312 18.769531 -16.71875 Z M 3.878906 -3.160156 C 3.828125 -3.234375 3.777344 -3.285156 3.730469 -3.335938 C 3.703125 -3.382812 3.65625 -3.433594 3.628906 -3.457031 C 3.582031 -3.53125 3.507812 -3.605469 3.457031 -3.679688 C 3.410156 -3.730469 3.359375 -3.804688 3.308594 -3.851562 C 3.285156 -3.902344 3.234375 -3.976562 3.210938 -4.027344 C 3.136719 -4.101562 3.085938 -4.199219 3.011719 -4.296875 C 3.011719 -4.296875 2.988281 -4.320312 2.988281 -4.347656 C 0.714844 -7.902344 1.210938 -12.742188 4.296875 -16.128906 C 4.394531 -16.25 4.519531 -16.375 4.617188 -16.472656 C 4.765625 -16.597656 4.890625 -16.71875 5.011719 -16.84375 C 5.011719 -16.84375 5.039062 -16.867188 5.0625 -16.867188 C 7.015625 -18.648438 9.460938 -19.535156 11.855469 -19.535156 C 13.609375 -19.535156 15.335938 -19.042969 16.84375 -18.078125 C 16.867188 -18.054688 16.867188 -18.054688 16.894531 -18.027344 C 16.96875 -18.003906 17.042969 -17.929688 17.117188 -17.882812 C 17.164062 -17.855469 17.238281 -17.808594 17.289062 -17.757812 C 17.335938 -17.734375 17.386719 -17.683594 17.4375 -17.660156 C 17.511719 -17.585938 17.585938 -17.535156 17.660156 -17.460938 C 17.707031 -17.4375 17.734375 -17.410156 17.757812 -17.386719 C 17.808594 -17.335938 17.882812 -17.289062 17.929688 -17.238281 L 18.597656 -16.570312 C 21.882812 -12.867188 21.535156 -7.039062 17.808594 -3.308594 C 14.175781 0.296875 8.59375 0.742188 4.890625 -2.222656 C 4.816406 -2.273438 4.742188 -2.347656 4.644531 -2.421875 C 4.617188 -2.445312 4.570312 -2.46875 4.542969 -2.519531 Z M 3.878906 -3.160156 "/></g></g></g><g fill="#ffffff" fill-opacity="1"><g transform="translate(171.04689, 323.907226)"><g><path d="M 19.734375 -10.027344 L 18.722656 -10.027344 C 18.722656 -10.027344 18.722656 -10.027344 18.695312 -10.027344 L 18.25 -10.027344 C 18.175781 -10.027344 18.128906 -9.953125 18.128906 -9.902344 C 18.128906 -9.828125 18.175781 -9.78125 18.25 -9.78125 C 18.425781 -9.78125 18.574219 -9.632812 18.597656 -9.433594 L 18.597656 -3.210938 C 16.695312 -1.136719 14.027344 0.0507812 11.210938 0.0507812 L 10.964844 0.0507812 C 5.878906 -0.0976562 1.902344 -4.46875 1.902344 -9.902344 C 1.902344 -15.335938 5.878906 -19.683594 10.964844 -19.832031 L 11.210938 -19.855469 C 12.152344 -19.855469 13.089844 -19.707031 14.003906 -19.460938 C 14.101562 -19.414062 14.199219 -19.386719 14.324219 -19.363281 L 14.324219 -19.339844 C 14.398438 -19.3125 14.472656 -19.289062 14.570312 -19.265625 C 16.496094 -18.574219 17.929688 -17.238281 18.695312 -15.410156 C 18.722656 -15.386719 18.746094 -15.335938 18.792969 -15.335938 C 18.84375 -15.335938 18.867188 -15.363281 18.894531 -15.386719 L 19.363281 -15.855469 C 19.386719 -15.90625 19.414062 -15.953125 19.363281 -16.003906 C 18.152344 -17.609375 16.523438 -18.820312 14.644531 -19.484375 C 14.621094 -19.511719 14.597656 -19.511719 14.570312 -19.511719 C 14.523438 -19.535156 14.472656 -19.558594 14.421875 -19.558594 L 14.398438 -19.585938 C 14.273438 -19.609375 14.175781 -19.660156 14.054688 -19.683594 C 13.140625 -19.957031 12.175781 -20.078125 11.210938 -20.078125 L 10.964844 -20.078125 C 10.964844 -20.078125 10.964844 -20.078125 10.941406 -20.078125 C 5.382812 -19.929688 1.039062 -15.460938 1.039062 -9.902344 C 1.039062 -4.320312 5.382812 0.148438 10.941406 0.296875 C 10.964844 0.296875 10.964844 0.296875 10.964844 0.296875 L 11.210938 0.296875 C 14.003906 0.296875 16.671875 -0.863281 18.597656 -2.863281 L 18.597656 -1.257812 C 18.597656 -1.210938 18.621094 -1.183594 18.671875 -1.160156 C 18.671875 -1.160156 18.695312 -1.136719 18.722656 -1.136719 C 18.746094 -1.136719 18.769531 -1.160156 18.792969 -1.183594 L 18.894531 -1.285156 C 19.066406 -1.480469 19.214844 -1.65625 19.363281 -1.851562 C 19.386719 -1.878906 19.386719 -1.902344 19.386719 -1.925781 L 19.386719 -9.433594 C 19.386719 -9.605469 19.535156 -9.78125 19.734375 -9.78125 C 19.808594 -9.78125 19.855469 -9.828125 19.855469 -9.902344 C 19.855469 -9.953125 19.808594 -10.027344 19.734375 -10.027344 Z M 19.734375 -10.027344 "/></g></g></g><g fill="#ffffff" fill-opacity="1"><g transform="translate(192.133292, 323.907226)"><g><path d="M 1.679688 -0.0976562 C 1.628906 -0.0976562 1.582031 -0.0507812 1.582031 0.0234375 C 1.582031 0.0742188 1.628906 0.125 1.679688 0.125 L 3.1875 0.125 C 3.261719 0.125 3.308594 0.0742188 3.308594 0.0234375 C 3.308594 -0.0507812 3.261719 -0.0976562 3.1875 -0.0976562 C 2.988281 -0.0976562 2.839844 -0.273438 2.839844 -0.46875 L 2.839844 -7.707031 C 2.839844 -8.839844 3.777344 -9.78125 4.914062 -9.78125 L 8.027344 -9.78125 C 9.386719 -9.78125 10.621094 -9.039062 11.285156 -7.878906 L 14.917969 -1.582031 C 15.511719 -0.566406 16.570312 0.0742188 17.757812 0.125 C 17.808594 0.125 17.855469 0.0742188 17.882812 0.0234375 C 17.882812 -0.0507812 17.832031 -0.0976562 17.757812 -0.125 C 17.066406 -0.171875 16.449219 -0.566406 16.101562 -1.160156 L 12.472656 -7.457031 C 11.832031 -8.570312 10.792969 -9.386719 9.582031 -9.78125 L 10.644531 -9.78125 C 13.433594 -9.78125 15.707031 -12.050781 15.707031 -14.84375 C 15.707031 -17.660156 13.433594 -19.929688 10.644531 -19.929688 L 1.679688 -19.929688 C 1.628906 -19.929688 1.582031 -19.882812 1.582031 -19.808594 C 1.582031 -19.734375 1.628906 -19.683594 1.679688 -19.683594 C 1.878906 -19.683594 2.050781 -19.535156 2.050781 -19.339844 L 2.050781 -0.46875 C 2.050781 -0.273438 1.878906 -0.0976562 1.679688 -0.0976562 Z M 2.839844 -8.71875 L 2.839844 -19.683594 L 10.324219 -19.683594 C 12.816406 -19.683594 14.84375 -17.511719 14.84375 -14.84375 C 14.84375 -12.175781 12.816406 -10.027344 10.324219 -10.027344 L 4.914062 -10.027344 C 4 -10.027344 3.210938 -9.484375 2.839844 -8.71875 Z M 2.839844 -8.71875 "/></g></g></g><g fill="#ffffff" fill-opacity="1"><g transform="translate(210.306119, 323.907226)"><g><path d="M 1.308594 -0.0976562 C 1.234375 -0.0976562 1.160156 -0.148438 1.136719 -0.199219 C 1.085938 -0.246094 1.085938 -0.320312 1.113281 -0.417969 L 1.878906 -2.988281 L 11.3125 -2.988281 L 12.078125 -0.417969 C 12.101562 -0.320312 12.101562 -0.246094 12.050781 -0.199219 C 12.003906 -0.148438 11.953125 -0.0976562 11.855469 -0.0976562 C 11.804688 -0.0976562 11.730469 -0.0507812 11.730469 0.0234375 C 11.730469 0.0742188 11.804688 0.125 11.855469 0.125 L 13.386719 0.125 C 13.460938 0.125 13.507812 0.0742188 13.507812 0.0234375 C 13.507812 -0.0507812 13.460938 -0.0976562 13.386719 -0.0976562 C 13.1875 -0.0976562 12.941406 -0.296875 12.890625 -0.492188 L 6.988281 -20.003906 C 6.988281 -20.003906 6.988281 -20.03125 6.988281 -20.03125 C 6.988281 -20.03125 6.964844 -20.054688 6.964844 -20.054688 C 6.964844 -20.054688 6.964844 -20.054688 6.941406 -20.054688 C 6.941406 -20.078125 6.941406 -20.078125 6.941406 -20.078125 C 6.914062 -20.078125 6.914062 -20.078125 6.914062 -20.078125 C 6.890625 -20.078125 6.890625 -20.078125 6.890625 -20.078125 C 6.867188 -20.078125 6.867188 -20.078125 6.867188 -20.078125 C 6.867188 -20.078125 6.839844 -20.078125 6.839844 -20.078125 C 6.839844 -20.078125 6.816406 -20.078125 6.816406 -20.054688 C 6.816406 -20.054688 6.792969 -20.054688 6.792969 -20.054688 C 6.792969 -20.054688 6.792969 -20.03125 6.792969 -20.03125 C 6.792969 -20.03125 6.765625 -20.003906 6.765625 -20.003906 L 6.765625 -19.957031 L 6.472656 -19.042969 C 6.472656 -19.042969 6.472656 -19.015625 6.472656 -19.015625 L 0.863281 -0.492188 C 0.816406 -0.273438 0.59375 -0.0976562 0.371094 -0.0976562 C 0.320312 -0.0976562 0.273438 -0.0507812 0.273438 0.0234375 C 0.273438 0.0742188 0.320312 0.125 0.371094 0.125 L 1.308594 0.125 C 1.382812 0.125 1.433594 0.0742188 1.433594 0.0234375 C 1.433594 -0.0507812 1.382812 -0.0976562 1.308594 -0.0976562 Z M 1.949219 -3.210938 L 6.59375 -18.574219 L 11.238281 -3.210938 Z M 1.949219 -3.210938 "/></g></g></g><g fill="#ffffff" fill-opacity="1"><g transform="translate(224.108575, 323.907226)"><g><path d="M 1.679688 -0.0976562 C 1.628906 -0.0976562 1.582031 -0.0507812 1.582031 0.0234375 C 1.582031 0.0742188 1.628906 0.125 1.679688 0.125 L 3.1875 0.125 C 3.261719 0.125 3.308594 0.0742188 3.308594 0.0234375 C 3.308594 -0.0507812 3.261719 -0.0976562 3.1875 -0.0976562 C 2.988281 -0.0976562 2.839844 -0.273438 2.839844 -0.46875 L 2.839844 -7.707031 C 2.839844 -8.839844 3.777344 -9.78125 4.914062 -9.78125 L 9.878906 -9.78125 C 12.667969 -9.78125 14.941406 -12.050781 14.941406 -14.84375 C 14.941406 -17.660156 12.667969 -19.929688 9.878906 -19.929688 L 1.679688 -19.929688 C 1.628906 -19.929688 1.582031 -19.882812 1.582031 -19.808594 C 1.582031 -19.734375 1.628906 -19.683594 1.679688 -19.683594 C 1.878906 -19.683594 2.050781 -19.535156 2.050781 -19.339844 L 2.050781 -0.46875 C 2.050781 -0.273438 1.878906 -0.0976562 1.679688 -0.0976562 Z M 2.839844 -8.71875 L 2.839844 -19.683594 L 9.558594 -19.683594 C 12.050781 -19.683594 14.078125 -17.511719 14.078125 -14.84375 C 14.078125 -12.175781 12.050781 -10.027344 9.558594 -10.027344 L 4.914062 -10.027344 C 4 -10.003906 3.210938 -9.484375 2.839844 -8.71875 Z M 2.839844 -8.71875 "/></g></g></g><g fill="#ffffff" fill-opacity="1"><g transform="translate(239.738193, 323.907226)"><g><path d="M 1.679688 -0.0976562 C 1.628906 -0.0976562 1.582031 -0.0507812 1.582031 0.0234375 C 1.582031 0.0742188 1.628906 0.125 1.679688 0.125 L 3.1875 0.125 C 3.261719 0.125 3.308594 0.0742188 3.308594 0.0234375 C 3.308594 -0.0507812 3.261719 -0.0976562 3.1875 -0.0976562 C 2.988281 -0.0976562 2.839844 -0.273438 2.839844 -0.46875 L 2.839844 -9.78125 L 9.707031 -9.78125 L 9.707031 -0.46875 C 9.707031 -0.273438 9.558594 -0.0976562 9.359375 -0.0976562 C 9.285156 -0.0976562 9.238281 -0.0507812 9.238281 0.0234375 C 9.238281 0.0742188 9.285156 0.125 9.359375 0.125 L 10.867188 0.125 C 10.917969 0.125 10.992188 0.0742188 10.992188 0.0234375 C 10.992188 -0.0507812 10.917969 -0.0976562 10.867188 -0.0976562 C 10.667969 -0.0976562 10.519531 -0.273438 10.519531 -0.46875 L 10.519531 -19.339844 C 10.519531 -19.535156 10.667969 -19.683594 10.867188 -19.683594 C 10.917969 -19.683594 10.992188 -19.734375 10.992188 -19.808594 C 10.992188 -19.882812 10.917969 -19.929688 10.867188 -19.929688 L 9.359375 -19.929688 C 9.285156 -19.929688 9.238281 -19.882812 9.238281 -19.808594 C 9.238281 -19.734375 9.285156 -19.683594 9.359375 -19.683594 C 9.558594 -19.683594 9.707031 -19.535156 9.707031 -19.339844 L 9.707031 -10.027344 L 2.839844 -10.027344 L 2.839844 -19.339844 C 2.839844 -19.535156 2.988281 -19.683594 3.1875 -19.683594 C 3.261719 -19.683594 3.308594 -19.734375 3.308594 -19.808594 C 3.308594 -19.882812 3.261719 -19.929688 3.1875 -19.929688 L 1.679688 -19.929688 C 1.628906 -19.929688 1.582031 -19.882812 1.582031 -19.808594 C 1.582031 -19.734375 1.628906 -19.683594 1.679688 -19.683594 C 1.878906 -19.683594 2.050781 -19.535156 2.050781 -19.339844 L 2.050781 -0.46875 C 2.050781 -0.273438 1.878906 -0.0976562 1.679688 -0.0976562 Z M 1.679688 -0.0976562 "/></g></g></g><g fill="#ffffff" fill-opacity="1"><g transform="translate(252.330779, 323.907226)"><g><path d="M 9.828125 0.125 C 9.878906 0.125 9.953125 0.0742188 9.953125 0 L 9.953125 -1.210938 C 9.953125 -1.285156 9.902344 -1.308594 9.855469 -1.332031 C 9.804688 -1.359375 9.753906 -1.332031 9.707031 -1.285156 C 9.285156 -0.566406 8.988281 -0.125 2.839844 -0.0976562 L 2.839844 -9.78125 L 5.679688 -9.78125 C 5.753906 -9.78125 5.804688 -9.828125 5.804688 -9.902344 C 5.804688 -9.953125 5.753906 -10.027344 5.679688 -10.027344 L 2.839844 -10.027344 L 2.839844 -19.683594 C 8.988281 -19.683594 9.285156 -19.214844 9.707031 -18.523438 L 9.730469 -18.5 C 9.730469 -18.472656 9.78125 -18.449219 9.828125 -18.449219 C 9.828125 -18.449219 9.855469 -18.449219 9.855469 -18.449219 C 9.902344 -18.472656 9.953125 -18.523438 9.953125 -18.574219 L 9.953125 -19.808594 C 9.953125 -19.882812 9.878906 -19.929688 9.828125 -19.929688 L 1.679688 -19.929688 C 1.628906 -19.929688 1.582031 -19.882812 1.582031 -19.808594 C 1.582031 -19.734375 1.628906 -19.683594 1.679688 -19.683594 C 1.878906 -19.683594 2.050781 -19.535156 2.050781 -19.339844 L 2.050781 -0.46875 C 2.050781 -0.273438 1.878906 -0.0976562 1.679688 -0.0976562 C 1.628906 -0.0976562 1.582031 -0.0507812 1.582031 0.0234375 C 1.582031 0.0742188 1.628906 0.125 1.679688 0.125 Z M 9.828125 0.125 "/></g></g></g><g fill="#ffffff" fill-opacity="1"><g transform="translate(262.775217, 323.907226)"><g><path d="M 1.679688 -0.0976562 C 1.628906 -0.0976562 1.582031 -0.0507812 1.582031 0.0234375 C 1.582031 0.0742188 1.628906 0.125 1.679688 0.125 L 3.1875 0.125 C 3.261719 0.125 3.308594 0.0742188 3.308594 0.0234375 C 3.308594 -0.0507812 3.261719 -0.0976562 3.1875 -0.0976562 C 2.988281 -0.0976562 2.839844 -0.273438 2.839844 -0.46875 L 2.839844 -7.707031 C 2.839844 -8.839844 3.777344 -9.78125 4.914062 -9.78125 L 8.027344 -9.78125 C 9.386719 -9.78125 10.621094 -9.039062 11.285156 -7.878906 L 14.917969 -1.582031 C 15.511719 -0.566406 16.570312 0.0742188 17.757812 0.125 C 17.808594 0.125 17.855469 0.0742188 17.882812 0.0234375 C 17.882812 -0.0507812 17.832031 -0.0976562 17.757812 -0.125 C 17.066406 -0.171875 16.449219 -0.566406 16.101562 -1.160156 L 12.472656 -7.457031 C 11.832031 -8.570312 10.792969 -9.386719 9.582031 -9.78125 L 10.644531 -9.78125 C 13.433594 -9.78125 15.707031 -12.050781 15.707031 -14.84375 C 15.707031 -17.660156 13.433594 -19.929688 10.644531 -19.929688 L 1.679688 -19.929688 C 1.628906 -19.929688 1.582031 -19.882812 1.582031 -19.808594 C 1.582031 -19.734375 1.628906 -19.683594 1.679688 -19.683594 C 1.878906 -19.683594 2.050781 -19.535156 2.050781 -19.339844 L 2.050781 -0.46875 C 2.050781 -0.273438 1.878906 -0.0976562 1.679688 -0.0976562 Z M 2.839844 -8.71875 L 2.839844 -19.683594 L 10.324219 -19.683594 C 12.816406 -19.683594 14.84375 -17.511719 14.84375 -14.84375 C 14.84375 -12.175781 12.816406 -10.027344 10.324219 -10.027344 L 4.914062 -10.027344 C 4 -10.027344 3.210938 -9.484375 2.839844 -8.71875 Z M 2.839844 -8.71875 "/></g></g></g></svg>