<svg xmlns="http://www.w3.org/2000/svg" xmlns:xlink="http://www.w3.org/1999/xlink" width="500" zoomAndPan="magnify" viewBox="0 0 375 374.999991" height="500" preserveAspectRatio="xMidYMid meet" version="1.0"><defs><g/></defs><g fill="#ffffff" fill-opacity="1"><g transform="translate(7.910073, 233.109958)"><g/></g></g><g fill="#ffffff" fill-opacity="1"><g transform="translate(39.244059, 233.109958)"><g><path d="M 36.699219 -74.414062 L 6.269531 -74.414062 C 6.085938 -74.414062 5.902344 -74.230469 5.902344 -73.953125 C 5.902344 -73.675781 6.085938 -73.492188 6.269531 -73.492188 C 7.007812 -73.492188 7.652344 -72.9375 7.652344 -72.203125 L 7.652344 -1.753906 C 7.652344 -1.015625 7.007812 -0.367188 6.269531 -0.367188 C 6.085938 -0.367188 5.902344 -0.183594 5.902344 0.09375 C 5.902344 0.277344 6.085938 0.460938 6.269531 0.460938 L 11.894531 0.460938 C 12.171875 0.460938 12.355469 0.277344 12.355469 0.09375 C 12.355469 -0.183594 12.171875 -0.367188 11.894531 -0.367188 C 11.15625 -0.367188 10.605469 -1.015625 10.605469 -1.753906 L 10.605469 -36.515625 L 21.207031 -36.515625 C 21.484375 -36.515625 21.667969 -36.699219 21.667969 -36.976562 C 21.667969 -37.160156 21.484375 -37.4375 21.207031 -37.4375 L 10.605469 -37.4375 L 10.605469 -73.492188 C 33.566406 -73.492188 34.671875 -71.738281 36.238281 -69.160156 L 36.332031 -69.066406 C 36.332031 -68.972656 36.515625 -68.882812 36.699219 -68.882812 C 36.699219 -68.882812 36.792969 -68.882812 36.792969 -68.882812 C 36.976562 -68.972656 37.160156 -69.160156 37.160156 -69.34375 L 37.160156 -73.953125 C 37.160156 -74.230469 36.882812 -74.414062 36.699219 -74.414062 Z M 36.699219 -74.414062 "/></g></g></g><g fill="#ffffff" fill-opacity="1"><g transform="translate(76.95274, 233.109958)"><g><path d="M 11.894531 -73.492188 C 12.171875 -73.492188 12.355469 -73.675781 12.355469 -73.953125 C 12.355469 -74.230469 12.171875 -74.414062 11.894531 -74.414062 L 6.269531 -74.414062 C 6.085938 -74.414062 5.902344 -74.230469 5.902344 -73.953125 C 5.902344 -73.675781 6.085938 -73.492188 6.269531 -73.492188 C 7.007812 -73.492188 7.652344 -72.9375 7.652344 -72.203125 L 7.652344 -1.753906 C 7.652344 -1.015625 7.007812 -0.367188 6.269531 -0.367188 C 6.085938 -0.367188 5.902344 -0.183594 5.902344 0.09375 C 5.902344 0.277344 6.085938 0.460938 6.269531 0.460938 L 11.894531 0.460938 C 12.171875 0.460938 12.355469 0.277344 12.355469 0.09375 C 12.355469 -0.183594 12.171875 -0.367188 11.894531 -0.367188 C 11.15625 -0.367188 10.605469 -1.015625 10.605469 -1.753906 L 10.605469 -72.203125 C 10.605469 -72.9375 11.15625 -73.492188 11.894531 -73.492188 Z M 11.894531 -73.492188 "/></g></g></g><g fill="#ffffff" fill-opacity="1"><g transform="translate(95.29999, 233.109958)"><g><path d="M 39.003906 -74.414062 L 6.269531 -74.414062 C 6.085938 -74.414062 5.902344 -74.230469 5.902344 -73.953125 C 5.902344 -73.675781 6.085938 -73.492188 6.269531 -73.492188 C 7.007812 -73.492188 7.652344 -72.9375 7.652344 -72.203125 L 7.652344 -1.753906 C 7.652344 -1.015625 7.007812 -0.367188 6.269531 -0.367188 C 6.085938 -0.367188 5.902344 -0.183594 5.902344 0.09375 C 5.902344 0.277344 6.085938 0.460938 6.269531 0.460938 L 39.003906 0.460938 C 59.753906 0 76.074219 -16.503906 76.074219 -36.976562 C 76.074219 -57.449219 59.753906 -73.859375 39.003906 -74.414062 Z M 37.992188 -73.492188 L 39.003906 -73.492188 C 57.910156 -72.9375 72.753906 -56.894531 72.753906 -36.976562 C 72.753906 -16.96875 57.910156 -0.921875 39.003906 -0.460938 L 10.605469 -0.367188 L 10.605469 -73.492188 Z M 37.992188 -73.492188 "/></g></g></g><g fill="#ffffff" fill-opacity="1"><g transform="translate(175.235031, 233.109958)"><g><path d="M 36.699219 0.460938 C 36.882812 0.460938 37.160156 0.277344 37.160156 0 L 37.160156 -4.519531 C 37.160156 -4.796875 36.976562 -4.886719 36.792969 -4.980469 C 36.609375 -5.070312 36.421875 -4.980469 36.238281 -4.796875 C 34.671875 -2.121094 33.566406 -0.460938 10.605469 -0.367188 L 10.605469 -36.515625 L 21.207031 -36.515625 C 21.484375 -36.515625 21.667969 -36.699219 21.667969 -36.976562 C 21.667969 -37.160156 21.484375 -37.4375 21.207031 -37.4375 L 10.605469 -37.4375 L 10.605469 -73.492188 C 33.566406 -73.492188 34.671875 -71.738281 36.238281 -69.160156 L 36.332031 -69.066406 C 36.332031 -68.972656 36.515625 -68.882812 36.699219 -68.882812 C 36.699219 -68.882812 36.792969 -68.882812 36.792969 -68.882812 C 36.976562 -68.972656 37.160156 -69.160156 37.160156 -69.34375 L 37.160156 -73.953125 C 37.160156 -74.230469 36.882812 -74.414062 36.699219 -74.414062 L 6.269531 -74.414062 C 6.085938 -74.414062 5.902344 -74.230469 5.902344 -73.953125 C 5.902344 -73.675781 6.085938 -73.492188 6.269531 -73.492188 C 7.007812 -73.492188 7.652344 -72.9375 7.652344 -72.203125 L 7.652344 -1.753906 C 7.652344 -1.015625 7.007812 -0.367188 6.269531 -0.367188 C 6.085938 -0.367188 5.902344 -0.183594 5.902344 0.09375 C 5.902344 0.277344 6.085938 0.460938 6.269531 0.460938 Z M 36.699219 0.460938 "/></g></g></g><g fill="#ffffff" fill-opacity="1"><g transform="translate(214.222949, 233.109958)"><g/></g></g><g fill="#ffffff" fill-opacity="1"><g transform="translate(245.570015, 233.109958)"><g/></g></g><g fill="#ffffff" fill-opacity="1"><g transform="translate(276.912672, 233.109958)"><g><path d="M 36.699219 0.460938 C 36.882812 0.460938 37.160156 0.277344 37.160156 0 L 37.160156 -4.519531 C 37.160156 -4.796875 36.976562 -4.886719 36.792969 -4.980469 C 36.609375 -5.070312 36.421875 -4.980469 36.238281 -4.796875 C 34.671875 -2.121094 33.566406 -0.460938 10.605469 -0.367188 L 10.605469 -36.515625 L 21.207031 -36.515625 C 21.484375 -36.515625 21.667969 -36.699219 21.667969 -36.976562 C 21.667969 -37.160156 21.484375 -37.4375 21.207031 -37.4375 L 10.605469 -37.4375 L 10.605469 -73.492188 C 33.566406 -73.492188 34.671875 -71.738281 36.238281 -69.160156 L 36.332031 -69.066406 C 36.332031 -68.972656 36.515625 -68.882812 36.699219 -68.882812 C 36.699219 -68.882812 36.792969 -68.882812 36.792969 -68.882812 C 36.976562 -68.972656 37.160156 -69.160156 37.160156 -69.34375 L 37.160156 -73.953125 C 37.160156 -74.230469 36.882812 -74.414062 36.699219 -74.414062 L 6.269531 -74.414062 C 6.085938 -74.414062 5.902344 -74.230469 5.902344 -73.953125 C 5.902344 -73.675781 6.085938 -73.492188 6.269531 -73.492188 C 7.007812 -73.492188 7.652344 -72.9375 7.652344 -72.203125 L 7.652344 -1.753906 C 7.652344 -1.015625 7.007812 -0.367188 6.269531 -0.367188 C 6.085938 -0.367188 5.902344 -0.183594 5.902344 0.09375 C 5.902344 0.277344 6.085938 0.460938 6.269531 0.460938 Z M 36.699219 0.460938 "/></g></g></g><g fill="#ffffff" fill-opacity="1"><g transform="translate(315.91212, 233.109958)"><g><path d="M 7.46875 -16.96875 C 7.375 -17.058594 7.285156 -17.058594 7.191406 -17.058594 L 4.609375 -17.058594 C 4.425781 -17.058594 4.242188 -16.875 4.242188 -16.691406 C 4.242188 -9.40625 9.773438 -3.042969 18.351562 -0.277344 C 21.117188 0.644531 24.160156 1.105469 27.203125 1.105469 C 27.480469 1.105469 27.847656 1.105469 28.308594 1.105469 C 28.675781 1.105469 28.953125 1.105469 29.324219 1.015625 C 41.21875 0.183594 50.164062 -7.375 50.164062 -16.691406 C 50.164062 -22.222656 46.660156 -27.570312 40.847656 -30.890625 L 14.847656 -46.011719 C 9.683594 -48.964844 6.730469 -53.574219 6.730469 -58.460938 C 6.730469 -66.484375 14.660156 -73.214844 25.082031 -74.046875 C 25.359375 -74.046875 25.632812 -74.046875 25.910156 -74.046875 C 26.003906 -74.046875 26.003906 -74.046875 26.097656 -74.046875 C 26.464844 -74.046875 26.832031 -74.046875 27.203125 -74.046875 C 30.152344 -74.046875 33.011719 -73.675781 35.6875 -72.753906 C 46.289062 -69.160156 47.488281 -62.335938 46.75 -57.261719 C 46.75 -57.171875 46.75 -56.988281 46.84375 -56.894531 C 46.933594 -56.800781 47.121094 -56.800781 47.210938 -56.800781 L 49.703125 -56.800781 C 49.976562 -56.800781 50.164062 -56.988281 50.164062 -57.261719 C 50.164062 -64.457031 44.628906 -70.910156 35.960938 -73.675781 C 33.195312 -74.507812 30.246094 -74.96875 27.203125 -74.96875 C 26.832031 -74.96875 26.464844 -74.96875 26.097656 -74.96875 C 26.097656 -74.96875 26.003906 -74.96875 26.003906 -74.96875 L 25.910156 -74.96875 C 25.632812 -74.96875 25.359375 -74.96875 24.988281 -74.875 C 13.1875 -74.046875 4.242188 -66.484375 4.242188 -57.261719 C 4.242188 -51.546875 7.5625 -46.289062 13.460938 -42.96875 L 39.558594 -27.847656 C 44.628906 -24.898438 47.582031 -20.285156 47.582031 -15.398438 C 47.582031 -7.375 39.742188 -0.644531 29.324219 0.183594 C 28.953125 0.183594 28.585938 0.183594 28.214844 0.183594 C 27.847656 0.183594 27.480469 0.183594 27.203125 0.183594 C 24.25 0.183594 21.300781 -0.183594 18.625 -1.105469 C 8.113281 -4.703125 6.824219 -11.527344 7.5625 -16.597656 C 7.652344 -16.691406 7.5625 -16.875 7.46875 -16.96875 Z M 7.46875 -16.96875 "/></g></g></g><g fill="#ffffff" fill-opacity="1"><g transform="translate(214.746406, 260.943066)"><g><path d="M 13.949219 -126.183594 L 13.949219 0 L 16.410156 0 L 16.410156 -126.183594 Z M 13.949219 -126.183594 "/></g></g></g><g fill="#ffffff" fill-opacity="1"><g transform="translate(252.814691, 260.943066)"><g><path d="M 13.949219 -126.183594 L 13.949219 0 L 16.410156 0 L 16.410156 -126.183594 Z M 13.949219 -126.183594 "/></g></g></g></svg>