<svg xmlns="http://www.w3.org/2000/svg" xmlns:xlink="http://www.w3.org/1999/xlink" width="500" zoomAndPan="magnify" viewBox="0 0 375 374.999991" height="500" preserveAspectRatio="xMidYMid meet" version="1.0"><defs><g/></defs><g fill="#000000" fill-opacity="1"><g transform="translate(83.321961, 177.749988)"><g/></g></g><g fill="#000000" fill-opacity="1"><g transform="translate(100.208678, 177.749988)"><g><path d="M 19.777344 -40.105469 L 3.378906 -40.105469 C 3.28125 -40.105469 3.179688 -40.003906 3.179688 -39.855469 C 3.179688 -39.707031 3.28125 -39.605469 3.378906 -39.605469 C 3.777344 -39.605469 4.125 -39.308594 4.125 -38.910156 L 4.125 -0.945312 C 4.125 -0.546875 3.777344 -0.199219 3.378906 -0.199219 C 3.28125 -0.199219 3.179688 -0.0976562 3.179688 0.0507812 C 3.179688 0.148438 3.28125 0.25 3.378906 0.25 L 6.410156 0.25 C 6.558594 0.25 6.660156 0.148438 6.660156 0.0507812 C 6.660156 -0.0976562 6.558594 -0.199219 6.410156 -0.199219 C 6.011719 -0.199219 5.714844 -0.546875 5.714844 -0.945312 L 5.714844 -19.679688 L 11.429688 -19.679688 C 11.578125 -19.679688 11.679688 -19.777344 11.679688 -19.925781 C 11.679688 -20.027344 11.578125 -20.175781 11.429688 -20.175781 L 5.714844 -20.175781 L 5.714844 -39.605469 C 18.089844 -39.605469 18.683594 -38.664062 19.53125 -37.269531 L 19.578125 -37.222656 C 19.578125 -37.171875 19.679688 -37.121094 19.777344 -37.121094 C 19.777344 -37.121094 19.828125 -37.121094 19.828125 -37.121094 C 19.925781 -37.171875 20.027344 -37.269531 20.027344 -37.371094 L 20.027344 -39.855469 C 20.027344 -40.003906 19.878906 -40.105469 19.777344 -40.105469 Z M 19.777344 -40.105469 "/></g></g></g><g fill="#000000" fill-opacity="1"><g transform="translate(120.530889, 177.749988)"><g><path d="M 6.410156 -39.605469 C 6.558594 -39.605469 6.660156 -39.707031 6.660156 -39.855469 C 6.660156 -40.003906 6.558594 -40.105469 6.410156 -40.105469 L 3.378906 -40.105469 C 3.28125 -40.105469 3.179688 -40.003906 3.179688 -39.855469 C 3.179688 -39.707031 3.28125 -39.605469 3.378906 -39.605469 C 3.777344 -39.605469 4.125 -39.308594 4.125 -38.910156 L 4.125 -0.945312 C 4.125 -0.546875 3.777344 -0.199219 3.378906 -0.199219 C 3.28125 -0.199219 3.179688 -0.0976562 3.179688 0.0507812 C 3.179688 0.148438 3.28125 0.25 3.378906 0.25 L 6.410156 0.25 C 6.558594 0.25 6.660156 0.148438 6.660156 0.0507812 C 6.660156 -0.0976562 6.558594 -0.199219 6.410156 -0.199219 C 6.011719 -0.199219 5.714844 -0.546875 5.714844 -0.945312 L 5.714844 -38.910156 C 5.714844 -39.308594 6.011719 -39.605469 6.410156 -39.605469 Z M 6.410156 -39.605469 "/></g></g></g><g fill="#000000" fill-opacity="1"><g transform="translate(130.41871, 177.749988)"><g><path d="M 21.019531 -40.105469 L 3.378906 -40.105469 C 3.28125 -40.105469 3.179688 -40.003906 3.179688 -39.855469 C 3.179688 -39.707031 3.28125 -39.605469 3.378906 -39.605469 C 3.777344 -39.605469 4.125 -39.308594 4.125 -38.910156 L 4.125 -0.945312 C 4.125 -0.546875 3.777344 -0.199219 3.378906 -0.199219 C 3.28125 -0.199219 3.179688 -0.0976562 3.179688 0.0507812 C 3.179688 0.148438 3.28125 0.25 3.378906 0.25 L 21.019531 0.25 C 32.203125 0 41 -8.894531 41 -19.925781 C 41 -30.960938 32.203125 -39.804688 21.019531 -40.105469 Z M 20.472656 -39.605469 L 21.019531 -39.605469 C 31.207031 -39.308594 39.210938 -30.660156 39.210938 -19.925781 C 39.210938 -9.144531 31.207031 -0.496094 21.019531 -0.25 L 5.714844 -0.199219 L 5.714844 -39.605469 Z M 20.472656 -39.605469 "/></g></g></g><g fill="#000000" fill-opacity="1"><g transform="translate(173.497828, 177.749988)"><g><path d="M 19.777344 0.25 C 19.878906 0.25 20.027344 0.148438 20.027344 0 L 20.027344 -2.433594 C 20.027344 -2.585938 19.925781 -2.632812 19.828125 -2.683594 C 19.730469 -2.734375 19.628906 -2.683594 19.53125 -2.585938 C 18.683594 -1.144531 18.089844 -0.25 5.714844 -0.199219 L 5.714844 -19.679688 L 11.429688 -19.679688 C 11.578125 -19.679688 11.679688 -19.777344 11.679688 -19.925781 C 11.679688 -20.027344 11.578125 -20.175781 11.429688 -20.175781 L 5.714844 -20.175781 L 5.714844 -39.605469 C 18.089844 -39.605469 18.683594 -38.664062 19.53125 -37.269531 L 19.578125 -37.222656 C 19.578125 -37.171875 19.679688 -37.121094 19.777344 -37.121094 C 19.777344 -37.121094 19.828125 -37.121094 19.828125 -37.121094 C 19.925781 -37.171875 20.027344 -37.269531 20.027344 -37.371094 L 20.027344 -39.855469 C 20.027344 -40.003906 19.878906 -40.105469 19.777344 -40.105469 L 3.378906 -40.105469 C 3.28125 -40.105469 3.179688 -40.003906 3.179688 -39.855469 C 3.179688 -39.707031 3.28125 -39.605469 3.378906 -39.605469 C 3.777344 -39.605469 4.125 -39.308594 4.125 -38.910156 L 4.125 -0.945312 C 4.125 -0.546875 3.777344 -0.199219 3.378906 -0.199219 C 3.28125 -0.199219 3.179688 -0.0976562 3.179688 0.0507812 C 3.179688 0.148438 3.28125 0.25 3.378906 0.25 Z M 19.777344 0.25 "/></g></g></g><g fill="#000000" fill-opacity="1"><g transform="translate(194.509453, 177.749988)"><g/></g></g><g fill="#000000" fill-opacity="1"><g transform="translate(211.40322, 177.749988)"><g/></g></g><g fill="#000000" fill-opacity="1"><g transform="translate(228.294611, 177.749988)"><g><path d="M 19.777344 0.25 C 19.878906 0.25 20.027344 0.148438 20.027344 0 L 20.027344 -2.433594 C 20.027344 -2.585938 19.925781 -2.632812 19.828125 -2.683594 C 19.730469 -2.734375 19.628906 -2.683594 19.53125 -2.585938 C 18.683594 -1.144531 18.089844 -0.25 5.714844 -0.199219 L 5.714844 -19.679688 L 11.429688 -19.679688 C 11.578125 -19.679688 11.679688 -19.777344 11.679688 -19.925781 C 11.679688 -20.027344 11.578125 -20.175781 11.429688 -20.175781 L 5.714844 -20.175781 L 5.714844 -39.605469 C 18.089844 -39.605469 18.683594 -38.664062 19.53125 -37.269531 L 19.578125 -37.222656 C 19.578125 -37.171875 19.679688 -37.121094 19.777344 -37.121094 C 19.777344 -37.121094 19.828125 -37.121094 19.828125 -37.121094 C 19.925781 -37.171875 20.027344 -37.269531 20.027344 -37.371094 L 20.027344 -39.855469 C 20.027344 -40.003906 19.878906 -40.105469 19.777344 -40.105469 L 3.378906 -40.105469 C 3.28125 -40.105469 3.179688 -40.003906 3.179688 -39.855469 C 3.179688 -39.707031 3.28125 -39.605469 3.378906 -39.605469 C 3.777344 -39.605469 4.125 -39.308594 4.125 -38.910156 L 4.125 -0.945312 C 4.125 -0.546875 3.777344 -0.199219 3.378906 -0.199219 C 3.28125 -0.199219 3.179688 -0.0976562 3.179688 0.0507812 C 3.179688 0.148438 3.28125 0.25 3.378906 0.25 Z M 19.777344 0.25 "/></g></g></g><g fill="#000000" fill-opacity="1"><g transform="translate(249.312451, 177.749988)"><g><path d="M 4.023438 -9.144531 C 3.976562 -9.195312 3.925781 -9.195312 3.875 -9.195312 L 2.484375 -9.195312 C 2.386719 -9.195312 2.285156 -9.09375 2.285156 -8.996094 C 2.285156 -5.070312 5.269531 -1.640625 9.890625 -0.148438 C 11.378906 0.347656 13.019531 0.597656 14.660156 0.597656 C 14.808594 0.597656 15.007812 0.597656 15.257812 0.597656 C 15.457031 0.597656 15.605469 0.597656 15.804688 0.546875 C 22.214844 0.0976562 27.035156 -3.976562 27.035156 -8.996094 C 27.035156 -11.976562 25.144531 -14.859375 22.015625 -16.648438 L 8 -24.796875 C 5.21875 -26.386719 3.628906 -28.871094 3.628906 -31.507812 C 3.628906 -35.832031 7.902344 -39.457031 13.515625 -39.90625 C 13.667969 -39.90625 13.816406 -39.90625 13.964844 -39.90625 C 14.015625 -39.90625 14.015625 -39.90625 14.0625 -39.90625 C 14.261719 -39.90625 14.460938 -39.90625 14.660156 -39.90625 C 16.25 -39.90625 17.789062 -39.707031 19.230469 -39.210938 C 24.945312 -37.269531 25.59375 -33.59375 25.195312 -30.859375 C 25.195312 -30.8125 25.195312 -30.710938 25.246094 -30.660156 C 25.292969 -30.613281 25.394531 -30.613281 25.445312 -30.613281 L 26.785156 -30.613281 C 26.933594 -30.613281 27.035156 -30.710938 27.035156 -30.859375 C 27.035156 -34.738281 24.050781 -38.214844 19.382812 -39.707031 C 17.890625 -40.152344 16.300781 -40.402344 14.660156 -40.402344 C 14.460938 -40.402344 14.261719 -40.402344 14.0625 -40.402344 C 14.0625 -40.402344 14.015625 -40.402344 14.015625 -40.402344 L 13.964844 -40.402344 C 13.816406 -40.402344 13.667969 -40.402344 13.46875 -40.351562 C 7.105469 -39.90625 2.285156 -35.832031 2.285156 -30.859375 C 2.285156 -27.78125 4.074219 -24.945312 7.253906 -23.15625 L 21.320312 -15.007812 C 24.050781 -13.417969 25.644531 -10.933594 25.644531 -8.300781 C 25.644531 -3.976562 21.417969 -0.347656 15.804688 0.0976562 C 15.605469 0.0976562 15.40625 0.0976562 15.207031 0.0976562 C 15.007812 0.0976562 14.808594 0.0976562 14.660156 0.0976562 C 13.070312 0.0976562 11.480469 -0.0976562 10.039062 -0.597656 C 4.375 -2.535156 3.675781 -6.210938 4.074219 -8.945312 C 4.125 -8.996094 4.074219 -9.09375 4.023438 -9.144531 Z M 4.023438 -9.144531 "/></g></g></g><g fill="#000000" fill-opacity="1"><g transform="translate(157.618853, 201.60486)"><g><path d="M 2.515625 -4.6875 C 3.117188 -4.6875 3.585938 -4.539062 3.921875 -4.25 C 4.265625 -3.96875 4.4375 -3.578125 4.4375 -3.078125 C 4.4375 -2.578125 4.265625 -2.1875 3.921875 -1.90625 C 3.585938 -1.625 3.117188 -1.484375 2.515625 -1.484375 L 1.265625 -1.484375 L 1.265625 0 L 0.765625 0 L 0.765625 -4.6875 Z M 2.5 -1.921875 C 2.96875 -1.921875 3.320312 -2.019531 3.5625 -2.21875 C 3.8125 -2.425781 3.9375 -2.710938 3.9375 -3.078125 C 3.9375 -3.460938 3.8125 -3.753906 3.5625 -3.953125 C 3.320312 -4.160156 2.96875 -4.265625 2.5 -4.265625 L 1.265625 -4.265625 L 1.265625 -1.921875 Z M 2.5 -1.921875 "/></g></g></g><g fill="#000000" fill-opacity="1"><g transform="translate(162.430272, 201.60486)"><g><path d="M 4.6875 -4.6875 L 4.6875 0 L 4.203125 0 L 4.203125 -2.171875 L 1.265625 -2.171875 L 1.265625 0 L 0.765625 0 L 0.765625 -4.6875 L 1.265625 -4.6875 L 1.265625 -2.59375 L 4.203125 -2.59375 L 4.203125 -4.6875 Z M 4.6875 -4.6875 "/></g></g></g><g fill="#000000" fill-opacity="1"><g transform="translate(167.878304, 201.60486)"><g><path d="M 2.8125 0.046875 C 2.351562 0.046875 1.929688 -0.0546875 1.546875 -0.265625 C 1.171875 -0.472656 0.875 -0.757812 0.65625 -1.125 C 0.445312 -1.488281 0.34375 -1.894531 0.34375 -2.34375 C 0.34375 -2.789062 0.445312 -3.195312 0.65625 -3.5625 C 0.875 -3.925781 1.171875 -4.210938 1.546875 -4.421875 C 1.929688 -4.628906 2.351562 -4.734375 2.8125 -4.734375 C 3.28125 -4.734375 3.695312 -4.628906 4.0625 -4.421875 C 4.4375 -4.210938 4.734375 -3.925781 4.953125 -3.5625 C 5.171875 -3.195312 5.28125 -2.789062 5.28125 -2.34375 C 5.28125 -1.894531 5.171875 -1.488281 4.953125 -1.125 C 4.734375 -0.757812 4.4375 -0.472656 4.0625 -0.265625 C 3.695312 -0.0546875 3.28125 0.046875 2.8125 0.046875 Z M 2.8125 -0.40625 C 3.1875 -0.40625 3.519531 -0.488281 3.8125 -0.65625 C 4.113281 -0.820312 4.347656 -1.050781 4.515625 -1.34375 C 4.691406 -1.644531 4.78125 -1.976562 4.78125 -2.34375 C 4.78125 -2.707031 4.691406 -3.035156 4.515625 -3.328125 C 4.347656 -3.628906 4.113281 -3.863281 3.8125 -4.03125 C 3.519531 -4.207031 3.1875 -4.296875 2.8125 -4.296875 C 2.445312 -4.296875 2.113281 -4.207031 1.8125 -4.03125 C 1.507812 -3.863281 1.269531 -3.628906 1.09375 -3.328125 C 0.925781 -3.035156 0.84375 -2.707031 0.84375 -2.34375 C 0.84375 -1.976562 0.925781 -1.644531 1.09375 -1.34375 C 1.269531 -1.050781 1.507812 -0.820312 1.8125 -0.65625 C 2.113281 -0.488281 2.445312 -0.40625 2.8125 -0.40625 Z M 2.8125 -0.40625 "/></g></g></g><g fill="#000000" fill-opacity="1"><g transform="translate(173.500562, 201.60486)"><g><path d="M 1.671875 -4.265625 L 0.03125 -4.265625 L 0.03125 -4.6875 L 3.828125 -4.6875 L 3.828125 -4.265625 L 2.171875 -4.265625 L 2.171875 0 L 1.671875 0 Z M 1.671875 -4.265625 "/></g></g></g><g fill="#000000" fill-opacity="1"><g transform="translate(177.347017, 201.60486)"><g><path d="M 2.8125 0.046875 C 2.351562 0.046875 1.929688 -0.0546875 1.546875 -0.265625 C 1.171875 -0.472656 0.875 -0.757812 0.65625 -1.125 C 0.445312 -1.488281 0.34375 -1.894531 0.34375 -2.34375 C 0.34375 -2.789062 0.445312 -3.195312 0.65625 -3.5625 C 0.875 -3.925781 1.171875 -4.210938 1.546875 -4.421875 C 1.929688 -4.628906 2.351562 -4.734375 2.8125 -4.734375 C 3.28125 -4.734375 3.695312 -4.628906 4.0625 -4.421875 C 4.4375 -4.210938 4.734375 -3.925781 4.953125 -3.5625 C 5.171875 -3.195312 5.28125 -2.789062 5.28125 -2.34375 C 5.28125 -1.894531 5.171875 -1.488281 4.953125 -1.125 C 4.734375 -0.757812 4.4375 -0.472656 4.0625 -0.265625 C 3.695312 -0.0546875 3.28125 0.046875 2.8125 0.046875 Z M 2.8125 -0.40625 C 3.1875 -0.40625 3.519531 -0.488281 3.8125 -0.65625 C 4.113281 -0.820312 4.347656 -1.050781 4.515625 -1.34375 C 4.691406 -1.644531 4.78125 -1.976562 4.78125 -2.34375 C 4.78125 -2.707031 4.691406 -3.035156 4.515625 -3.328125 C 4.347656 -3.628906 4.113281 -3.863281 3.8125 -4.03125 C 3.519531 -4.207031 3.1875 -4.296875 2.8125 -4.296875 C 2.445312 -4.296875 2.113281 -4.207031 1.8125 -4.03125 C 1.507812 -3.863281 1.269531 -3.628906 1.09375 -3.328125 C 0.925781 -3.035156 0.84375 -2.707031 0.84375 -2.34375 C 0.84375 -1.976562 0.925781 -1.644531 1.09375 -1.34375 C 1.269531 -1.050781 1.507812 -0.820312 1.8125 -0.65625 C 2.113281 -0.488281 2.445312 -0.40625 2.8125 -0.40625 Z M 2.8125 -0.40625 "/></g></g></g><g fill="#000000" fill-opacity="1"><g transform="translate(182.969276, 201.60486)"><g><path d="M 4.0625 -2.34375 L 4.546875 -2.34375 L 4.546875 -0.5625 C 4.328125 -0.363281 4.066406 -0.210938 3.765625 -0.109375 C 3.460938 -0.00390625 3.148438 0.046875 2.828125 0.046875 C 2.359375 0.046875 1.929688 -0.0546875 1.546875 -0.265625 C 1.171875 -0.472656 0.875 -0.757812 0.65625 -1.125 C 0.445312 -1.488281 0.34375 -1.894531 0.34375 -2.34375 C 0.34375 -2.789062 0.445312 -3.195312 0.65625 -3.5625 C 0.875 -3.925781 1.171875 -4.210938 1.546875 -4.421875 C 1.929688 -4.628906 2.359375 -4.734375 2.828125 -4.734375 C 3.179688 -4.734375 3.507812 -4.675781 3.8125 -4.5625 C 4.113281 -4.445312 4.367188 -4.28125 4.578125 -4.0625 L 4.265625 -3.734375 C 3.890625 -4.109375 3.414062 -4.296875 2.84375 -4.296875 C 2.46875 -4.296875 2.125 -4.207031 1.8125 -4.03125 C 1.507812 -3.863281 1.269531 -3.628906 1.09375 -3.328125 C 0.925781 -3.035156 0.84375 -2.707031 0.84375 -2.34375 C 0.84375 -1.976562 0.925781 -1.644531 1.09375 -1.34375 C 1.269531 -1.050781 1.507812 -0.820312 1.8125 -0.65625 C 2.113281 -0.488281 2.457031 -0.40625 2.84375 -0.40625 C 3.320312 -0.40625 3.726562 -0.523438 4.0625 -0.765625 Z M 4.0625 -2.34375 "/></g></g></g><g fill="#000000" fill-opacity="1"><g transform="translate(188.149258, 201.60486)"><g><path d="M 3.96875 0 L 2.890625 -1.515625 C 2.773438 -1.492188 2.648438 -1.484375 2.515625 -1.484375 L 1.265625 -1.484375 L 1.265625 0 L 0.765625 0 L 0.765625 -4.6875 L 2.515625 -4.6875 C 3.117188 -4.6875 3.585938 -4.539062 3.921875 -4.25 C 4.265625 -3.96875 4.4375 -3.578125 4.4375 -3.078125 C 4.4375 -2.710938 4.34375 -2.40625 4.15625 -2.15625 C 3.96875 -1.90625 3.703125 -1.722656 3.359375 -1.609375 L 4.515625 0 Z M 2.5 -1.90625 C 2.96875 -1.90625 3.320312 -2.007812 3.5625 -2.21875 C 3.8125 -2.425781 3.9375 -2.710938 3.9375 -3.078125 C 3.9375 -3.460938 3.8125 -3.753906 3.5625 -3.953125 C 3.320312 -4.160156 2.96875 -4.265625 2.5 -4.265625 L 1.265625 -4.265625 L 1.265625 -1.90625 Z M 2.5 -1.90625 "/></g></g></g><g fill="#000000" fill-opacity="1"><g transform="translate(192.994181, 201.60486)"><g><path d="M 3.703125 -1.25 L 1.09375 -1.25 L 0.53125 0 L 0.015625 0 L 2.15625 -4.6875 L 2.640625 -4.6875 L 4.796875 0 L 4.265625 0 Z M 3.53125 -1.65625 L 2.40625 -4.171875 L 1.28125 -1.65625 Z M 3.53125 -1.65625 "/></g></g></g><g fill="#000000" fill-opacity="1"><g transform="translate(197.798903, 201.60486)"><g><path d="M 2.515625 -4.6875 C 3.117188 -4.6875 3.585938 -4.539062 3.921875 -4.25 C 4.265625 -3.96875 4.4375 -3.578125 4.4375 -3.078125 C 4.4375 -2.578125 4.265625 -2.1875 3.921875 -1.90625 C 3.585938 -1.625 3.117188 -1.484375 2.515625 -1.484375 L 1.265625 -1.484375 L 1.265625 0 L 0.765625 0 L 0.765625 -4.6875 Z M 2.5 -1.921875 C 2.96875 -1.921875 3.320312 -2.019531 3.5625 -2.21875 C 3.8125 -2.425781 3.9375 -2.710938 3.9375 -3.078125 C 3.9375 -3.460938 3.8125 -3.753906 3.5625 -3.953125 C 3.320312 -4.160156 2.96875 -4.265625 2.5 -4.265625 L 1.265625 -4.265625 L 1.265625 -1.921875 Z M 2.5 -1.921875 "/></g></g></g><g fill="#000000" fill-opacity="1"><g transform="translate(202.610323, 201.60486)"><g><path d="M 4.6875 -4.6875 L 4.6875 0 L 4.203125 0 L 4.203125 -2.171875 L 1.265625 -2.171875 L 1.265625 0 L 0.765625 0 L 0.765625 -4.6875 L 1.265625 -4.6875 L 1.265625 -2.59375 L 4.203125 -2.59375 L 4.203125 -4.6875 Z M 4.6875 -4.6875 "/></g></g></g><g fill="#000000" fill-opacity="1"><g transform="translate(208.058355, 201.60486)"><g><path d="M 4.078125 -0.421875 L 4.078125 0 L 0.765625 0 L 0.765625 -4.6875 L 3.984375 -4.6875 L 3.984375 -4.265625 L 1.265625 -4.265625 L 1.265625 -2.59375 L 3.6875 -2.59375 L 3.6875 -2.171875 L 1.265625 -2.171875 L 1.265625 -0.421875 Z M 4.078125 -0.421875 "/></g></g></g><g fill="#000000" fill-opacity="1"><g transform="translate(212.541422, 201.60486)"><g><path d="M 3.96875 0 L 2.890625 -1.515625 C 2.773438 -1.492188 2.648438 -1.484375 2.515625 -1.484375 L 1.265625 -1.484375 L 1.265625 0 L 0.765625 0 L 0.765625 -4.6875 L 2.515625 -4.6875 C 3.117188 -4.6875 3.585938 -4.539062 3.921875 -4.25 C 4.265625 -3.96875 4.4375 -3.578125 4.4375 -3.078125 C 4.4375 -2.710938 4.34375 -2.40625 4.15625 -2.15625 C 3.96875 -1.90625 3.703125 -1.722656 3.359375 -1.609375 L 4.515625 0 Z M 2.5 -1.90625 C 2.96875 -1.90625 3.320312 -2.007812 3.5625 -2.21875 C 3.8125 -2.425781 3.9375 -2.710938 3.9375 -3.078125 C 3.9375 -3.460938 3.8125 -3.753906 3.5625 -3.953125 C 3.320312 -4.160156 2.96875 -4.265625 2.5 -4.265625 L 1.265625 -4.265625 L 1.265625 -1.90625 Z M 2.5 -1.90625 "/></g></g></g><g fill="#000000" fill-opacity="1"><g transform="translate(194.791573, 192.749987)"><g><path d="M 7.515625 -68.003906 L 7.515625 0 L 8.84375 0 L 8.84375 -68.003906 Z M 7.515625 -68.003906 "/></g></g></g><g fill="#000000" fill-opacity="1"><g transform="translate(215.307584, 192.749987)"><g><path d="M 7.515625 -68.003906 L 7.515625 0 L 8.84375 0 L 8.84375 -68.003906 Z M 7.515625 -68.003906 "/></g></g></g></svg>