<svg xmlns="http://www.w3.org/2000/svg" xmlns:xlink="http://www.w3.org/1999/xlink" width="500" zoomAndPan="magnify" viewBox="0 0 375 374.999991" height="500" preserveAspectRatio="xMidYMid meet" version="1.0"><defs><g/></defs><g fill="#ffffff" fill-opacity="1"><g transform="translate(83.321961, 158.747102)"><g/></g></g><g fill="#ffffff" fill-opacity="1"><g transform="translate(95.249504, 158.747102)"><g><path d="M 13.96875 -28.328125 L 2.386719 -28.328125 C 2.316406 -28.328125 2.246094 -28.257812 2.246094 -28.152344 C 2.246094 -28.046875 2.316406 -27.976562 2.386719 -27.976562 C 2.667969 -27.976562 2.914062 -27.765625 2.914062 -27.484375 L 2.914062 -0.667969 C 2.914062 -0.386719 2.667969 -0.140625 2.386719 -0.140625 C 2.316406 -0.140625 2.246094 -0.0703125 2.246094 0.0351562 C 2.246094 0.105469 2.316406 0.175781 2.386719 0.175781 L 4.527344 0.175781 C 4.632812 0.175781 4.703125 0.105469 4.703125 0.0351562 C 4.703125 -0.0703125 4.632812 -0.140625 4.527344 -0.140625 C 4.246094 -0.140625 4.035156 -0.386719 4.035156 -0.667969 L 4.035156 -13.898438 L 8.074219 -13.898438 C 8.179688 -13.898438 8.25 -13.96875 8.25 -14.074219 C 8.25 -14.144531 8.179688 -14.25 8.074219 -14.25 L 4.035156 -14.25 L 4.035156 -27.976562 C 12.777344 -27.976562 13.199219 -27.308594 13.792969 -26.324219 L 13.828125 -26.289062 C 13.828125 -26.253906 13.898438 -26.21875 13.96875 -26.21875 C 13.96875 -26.21875 14.003906 -26.21875 14.003906 -26.21875 C 14.074219 -26.253906 14.144531 -26.324219 14.144531 -26.394531 L 14.144531 -28.152344 C 14.144531 -28.257812 14.039062 -28.328125 13.96875 -28.328125 Z M 13.96875 -28.328125 "/></g></g></g><g fill="#ffffff" fill-opacity="1"><g transform="translate(109.603628, 158.747102)"><g><path d="M 4.527344 -27.976562 C 4.632812 -27.976562 4.703125 -28.046875 4.703125 -28.152344 C 4.703125 -28.257812 4.632812 -28.328125 4.527344 -28.328125 L 2.386719 -28.328125 C 2.316406 -28.328125 2.246094 -28.257812 2.246094 -28.152344 C 2.246094 -28.046875 2.316406 -27.976562 2.386719 -27.976562 C 2.667969 -27.976562 2.914062 -27.765625 2.914062 -27.484375 L 2.914062 -0.667969 C 2.914062 -0.386719 2.667969 -0.140625 2.386719 -0.140625 C 2.316406 -0.140625 2.246094 -0.0703125 2.246094 0.0351562 C 2.246094 0.105469 2.316406 0.175781 2.386719 0.175781 L 4.527344 0.175781 C 4.632812 0.175781 4.703125 0.105469 4.703125 0.0351562 C 4.703125 -0.0703125 4.632812 -0.140625 4.527344 -0.140625 C 4.246094 -0.140625 4.035156 -0.386719 4.035156 -0.667969 L 4.035156 -27.484375 C 4.035156 -27.765625 4.246094 -27.976562 4.527344 -27.976562 Z M 4.527344 -27.976562 "/></g></g></g><g fill="#ffffff" fill-opacity="1"><g transform="translate(116.587662, 158.747102)"><g><path d="M 14.847656 -28.328125 L 2.386719 -28.328125 C 2.316406 -28.328125 2.246094 -28.257812 2.246094 -28.152344 C 2.246094 -28.046875 2.316406 -27.976562 2.386719 -27.976562 C 2.667969 -27.976562 2.914062 -27.765625 2.914062 -27.484375 L 2.914062 -0.667969 C 2.914062 -0.386719 2.667969 -0.140625 2.386719 -0.140625 C 2.316406 -0.140625 2.246094 -0.0703125 2.246094 0.0351562 C 2.246094 0.105469 2.316406 0.175781 2.386719 0.175781 L 14.847656 0.175781 C 22.746094 0 28.957031 -6.28125 28.957031 -14.074219 C 28.957031 -21.867188 22.746094 -28.117188 14.847656 -28.328125 Z M 14.460938 -27.976562 L 14.847656 -27.976562 C 22.042969 -27.765625 27.695312 -21.65625 27.695312 -14.074219 C 27.695312 -6.457031 22.042969 -0.351562 14.847656 -0.175781 L 4.035156 -0.140625 L 4.035156 -27.976562 Z M 14.460938 -27.976562 "/></g></g></g><g fill="#ffffff" fill-opacity="1"><g transform="translate(147.015603, 158.747102)"><g><path d="M 13.96875 0.175781 C 14.039062 0.175781 14.144531 0.105469 14.144531 0 L 14.144531 -1.71875 C 14.144531 -1.824219 14.074219 -1.859375 14.003906 -1.894531 C 13.933594 -1.929688 13.863281 -1.894531 13.792969 -1.824219 C 13.199219 -0.808594 12.777344 -0.175781 4.035156 -0.140625 L 4.035156 -13.898438 L 8.074219 -13.898438 C 8.179688 -13.898438 8.25 -13.96875 8.25 -14.074219 C 8.25 -14.144531 8.179688 -14.25 8.074219 -14.25 L 4.035156 -14.25 L 4.035156 -27.976562 C 12.777344 -27.976562 13.199219 -27.308594 13.792969 -26.324219 L 13.828125 -26.289062 C 13.828125 -26.253906 13.898438 -26.21875 13.96875 -26.21875 C 13.96875 -26.21875 14.003906 -26.21875 14.003906 -26.21875 C 14.074219 -26.253906 14.144531 -26.324219 14.144531 -26.394531 L 14.144531 -28.152344 C 14.144531 -28.257812 14.039062 -28.328125 13.96875 -28.328125 L 2.386719 -28.328125 C 2.316406 -28.328125 2.246094 -28.257812 2.246094 -28.152344 C 2.246094 -28.046875 2.316406 -27.976562 2.386719 -27.976562 C 2.667969 -27.976562 2.914062 -27.765625 2.914062 -27.484375 L 2.914062 -0.667969 C 2.914062 -0.386719 2.667969 -0.140625 2.386719 -0.140625 C 2.316406 -0.140625 2.246094 -0.0703125 2.246094 0.0351562 C 2.246094 0.105469 2.316406 0.175781 2.386719 0.175781 Z M 13.96875 0.175781 "/></g></g></g><g fill="#ffffff" fill-opacity="1"><g transform="translate(161.856679, 158.747102)"><g/></g></g><g fill="#ffffff" fill-opacity="1"><g transform="translate(173.789201, 158.747102)"><g/></g></g><g fill="#ffffff" fill-opacity="1"><g transform="translate(185.720045, 158.747102)"><g><path d="M 13.96875 0.175781 C 14.039062 0.175781 14.144531 0.105469 14.144531 0 L 14.144531 -1.71875 C 14.144531 -1.824219 14.074219 -1.859375 14.003906 -1.894531 C 13.933594 -1.929688 13.863281 -1.894531 13.792969 -1.824219 C 13.199219 -0.808594 12.777344 -0.175781 4.035156 -0.140625 L 4.035156 -13.898438 L 8.074219 -13.898438 C 8.179688 -13.898438 8.25 -13.96875 8.25 -14.074219 C 8.25 -14.144531 8.179688 -14.25 8.074219 -14.25 L 4.035156 -14.25 L 4.035156 -27.976562 C 12.777344 -27.976562 13.199219 -27.308594 13.792969 -26.324219 L 13.828125 -26.289062 C 13.828125 -26.253906 13.898438 -26.21875 13.96875 -26.21875 C 13.96875 -26.21875 14.003906 -26.21875 14.003906 -26.21875 C 14.074219 -26.253906 14.144531 -26.324219 14.144531 -26.394531 L 14.144531 -28.152344 C 14.144531 -28.257812 14.039062 -28.328125 13.96875 -28.328125 L 2.386719 -28.328125 C 2.316406 -28.328125 2.246094 -28.257812 2.246094 -28.152344 C 2.246094 -28.046875 2.316406 -27.976562 2.386719 -27.976562 C 2.667969 -27.976562 2.914062 -27.765625 2.914062 -27.484375 L 2.914062 -0.667969 C 2.914062 -0.386719 2.667969 -0.140625 2.386719 -0.140625 C 2.316406 -0.140625 2.246094 -0.0703125 2.246094 0.0351562 C 2.246094 0.105469 2.316406 0.175781 2.386719 0.175781 Z M 13.96875 0.175781 "/></g></g></g><g fill="#ffffff" fill-opacity="1"><g transform="translate(200.565511, 158.747102)"><g><path d="M 2.84375 -6.457031 C 2.808594 -6.492188 2.773438 -6.492188 2.738281 -6.492188 L 1.753906 -6.492188 C 1.683594 -6.492188 1.613281 -6.421875 1.613281 -6.351562 C 1.613281 -3.582031 3.71875 -1.160156 6.984375 -0.105469 C 8.039062 0.246094 9.195312 0.421875 10.355469 0.421875 C 10.460938 0.421875 10.601562 0.421875 10.777344 0.421875 C 10.917969 0.421875 11.023438 0.421875 11.160156 0.386719 C 15.691406 0.0703125 19.09375 -2.808594 19.09375 -6.351562 C 19.09375 -8.460938 17.761719 -10.496094 15.550781 -11.757812 L 5.652344 -17.515625 C 3.6875 -18.636719 2.5625 -20.394531 2.5625 -22.253906 C 2.5625 -25.308594 5.582031 -27.871094 9.546875 -28.1875 C 9.652344 -28.1875 9.757812 -28.1875 9.863281 -28.1875 C 9.898438 -28.1875 9.898438 -28.1875 9.933594 -28.1875 C 10.074219 -28.1875 10.214844 -28.1875 10.355469 -28.1875 C 11.476562 -28.1875 12.566406 -28.046875 13.585938 -27.695312 C 17.621094 -26.324219 18.078125 -23.726562 17.796875 -21.796875 C 17.796875 -21.761719 17.796875 -21.691406 17.832031 -21.65625 C 17.867188 -21.621094 17.9375 -21.621094 17.972656 -21.621094 L 18.917969 -21.621094 C 19.023438 -21.621094 19.09375 -21.691406 19.09375 -21.796875 C 19.09375 -24.535156 16.988281 -26.992188 13.6875 -28.046875 C 12.636719 -28.363281 11.511719 -28.535156 10.355469 -28.535156 C 10.214844 -28.535156 10.074219 -28.535156 9.933594 -28.535156 C 9.933594 -28.535156 9.898438 -28.535156 9.898438 -28.535156 L 9.863281 -28.535156 C 9.757812 -28.535156 9.652344 -28.535156 9.511719 -28.5 C 5.019531 -28.1875 1.613281 -25.308594 1.613281 -21.796875 C 1.613281 -19.621094 2.878906 -17.621094 5.125 -16.355469 L 15.058594 -10.601562 C 16.988281 -9.476562 18.113281 -7.722656 18.113281 -5.863281 C 18.113281 -2.808594 15.128906 -0.246094 11.160156 0.0703125 C 11.023438 0.0703125 10.882812 0.0703125 10.742188 0.0703125 C 10.601562 0.0703125 10.460938 0.0703125 10.355469 0.0703125 C 9.230469 0.0703125 8.109375 -0.0703125 7.089844 -0.421875 C 3.089844 -1.789062 2.597656 -4.386719 2.878906 -6.316406 C 2.914062 -6.351562 2.878906 -6.421875 2.84375 -6.457031 Z M 2.84375 -6.457031 "/></g></g></g><g fill="#ffffff" fill-opacity="1"><g transform="translate(162.05595, 169.342007)"><g><path d="M 5.308594 -48.035156 L 5.308594 0 L 6.246094 0 L 6.246094 -48.035156 Z M 5.308594 -48.035156 "/></g></g></g><g fill="#ffffff" fill-opacity="1"><g transform="translate(176.54696, 169.342007)"><g><path d="M 5.308594 -48.035156 L 5.308594 0 L 6.246094 0 L 6.246094 -48.035156 Z M 5.308594 -48.035156 "/></g></g></g></svg>